<svg id="Layer_1" xmlns="http://www.w3.org/2000/svg" viewBox="0 0 396.85 87.87"><defs><style>.cls-1{fill:#00aa4f;}</style></defs><path class="cls-1" d="M141.88,54.46l-14-40.03h-17.73l23.31,62.48h16.11l23.31-62.48h-17.01l-14,40.03ZM284.61,64.86c5.05,0,9.14-4.34,9.14-9.69s-4.09-9.69-9.14-9.69-9.15,4.34-9.15,9.69,4.1,9.69,9.15,9.69M292.91,11.58h15.18v65.32h-14.26l-.16-4.9c-1.3,2.02-3.05,3.58-5.27,4.68-2.22,1.1-4.74,1.65-7.55,1.65-3.77,0-7.14-.95-10.13-2.82-2.98-1.89-5.34-4.57-7.08-8.06-1.75-3.49-2.62-7.5-2.62-12.05,0-4.27.85-8.17,2.53-11.68,1.68-3.51,4.07-6.33,7.16-8.43,3.09-2.11,6.6-3.16,10.55-3.16,2.36,0,4.56.46,6.58,1.4,2.03.92,3.71,2.23,5.06,3.91V11.58ZM239.39,76.91h14.85v-43.5h-14.85v43.5ZM392.94,32.09c-4.06,0-7.55,1.71-9.82,4.81l-.61.83v-4.33h-14.86v43.5h14.86v-23.67c0-4.3,3.63-7.48,8.03-7.48s6.32.59,6.32.59v-13.6c-.71-.33-2.16-.66-3.91-.66M217.86,36.9l-.61.83v-4.33h-14.85v43.5h14.85v-23.67c0-4.3,3.63-7.48,8.03-7.48s6.32.59,6.32.59v-13.6c-.71-.33-2.16-.66-3.92-.66-4.05,0-7.54,1.71-9.82,4.81M177.56,76.91h14.86v-43.5h-14.86v43.5ZM337.83,64.78c5.29,0,9.57-4.28,9.57-9.56s-4.28-9.56-9.57-9.56-9.57,4.28-9.57,9.56,4.29,9.56,9.57,9.56M337.83,32.12c12.76,0,23.12,10.34,23.12,23.1s-10.35,23.11-23.12,23.11-23.11-10.35-23.11-23.11,10.35-23.1,23.11-23.1M246.82,11.58c-4.71,0-8.54,3.82-8.54,8.53s3.82,8.53,8.54,8.53,8.54-3.82,8.54-8.53-3.83-8.53-8.54-8.53M185.21,11.58c4.71,0,8.53,3.82,8.53,8.53s-3.82,8.53-8.53,8.53-8.54-3.82-8.54-8.53,3.82-8.53,8.54-8.53"/><path class="cls-1" d="M43.78,77.74h0c-5.84-10.52-29.09-52.38-29.09-52.38,0,0-3.59-.54-7.05,1-.03.01-.45.22-.45.22-3.05,1.49-5.35,4.25-6.11,7.7-.72,3.18-1.08,6.43-1.08,9.65,0,24.23,19.72,43.94,43.95,43.94,3.1,0,6.18-.32,9.16-.95-.2-.08-.4-.16-.59-.25-1.47-.67-5.41-2.94-8.74-8.93"/><path class="cls-1" d="M5.18,23.17c.26-.14.53-.28.79-.41,1.23-.58,3.81-1.57,7.03-1.57h18.17s12.79,22.74,12.79,22.74l12.78-22.74h13.93c.91-1.64,1.37-4.96.49-8.29-.57-2.17-1.93-5.14-5.23-7.02-6.74-3.86-14.34-5.89-21.97-5.89C27.55,0,12.76,8.86,5.18,23.17"/><path class="cls-1" d="M73.84,24.2h0c-1.49,2.68-14.18,25.63-21.94,39.65-2.81,5.08-4.92,8.91-5.52,9.98,0,0,.94,2.79,3.17,5.39.28.34.94,1.05,1.48,1.49.88.71,1.81,1.32,1.81,1.32,1.58.97,3.44,1.7,5.38,1.92.09.01,1.15.11,2,.04,2.44-.2,4.34-1.27,4.34-1.27,14.41-7.66,23.33-22.45,23.33-38.79,0-11.29-4.51-22.38-12.41-30.56.06.32.11.71.17,1.14.2,1.9.27,5.89-1.83,9.69"/></svg>