<svg xmlns="http://www.w3.org/2000/svg" width="179" height="40" viewBox="0 0 179 40" fill="white" class="viridor-logo"><path d="M83.5333 5.27123C85.6515 5.27123 87.3818 7.01821 87.3818 9.15675C87.3818 11.2953 85.6515 13.0423 83.5333 13.0423C81.4152 13.0423 79.6848 11.2953 79.6848 9.15675C79.6848 7.01821 81.4152 5.27123 83.5333 5.27123ZM111.338 5.27123C109.22 5.27123 107.49 7.01821 107.49 9.15675C107.49 11.2953 109.22 13.0423 111.338 13.0423C113.456 13.0423 115.187 11.2953 115.187 9.15675C115.187 7.01821 113.456 5.27123 111.338 5.27123ZM152.389 29.488C154.775 29.488 156.715 27.5302 156.715 25.1205C156.715 22.7109 154.775 20.7531 152.389 20.7531C150.002 20.7531 148.063 22.7109 148.063 25.1205C148.063 27.5302 150.002 29.488 152.389 29.488ZM152.389 14.6085C158.146 14.6085 162.801 19.3073 162.801 25.1205C162.801 30.9338 158.146 35.6325 152.389 35.6325C146.631 35.6325 141.977 30.9338 141.977 25.1205C141.947 19.3374 146.631 14.6085 152.389 14.6085ZM80.0727 35.0301H86.7852V15.2109H80.0727V35.0301ZM98.271 16.7772L98.0025 17.1688V15.1808H91.29V35H98.0025V24.2169C98.0025 22.2591 99.6433 20.8133 101.612 20.8133C103.552 20.8133 104.476 21.0844 104.476 21.0844V14.8796C104.148 14.729 103.492 14.5784 102.716 14.5784C100.867 14.6085 99.2853 15.3917 98.271 16.7772ZM177.24 14.6085C175.42 14.6085 173.839 15.3917 172.825 16.8073L172.556 17.1989V15.2109H165.844V35.0301H172.556V24.2471C172.556 22.2892 174.197 20.8435 176.166 20.8435C178.105 20.8435 179 21.1145 179 21.1145V14.9097C178.672 14.7591 178.016 14.6085 177.24 14.6085ZM107.967 35.0301H114.679V15.2109H107.967V35.0301ZM128.373 29.5181C130.64 29.5181 132.49 27.5302 132.49 25.0904C132.49 22.6507 130.64 20.6627 128.373 20.6627C126.106 20.6627 124.256 22.6507 124.256 25.0904C124.256 27.5603 126.106 29.5181 128.373 29.5181ZM132.102 5.27123H138.964V35.0301H132.52L132.46 32.8012C131.863 33.735 131.088 34.4277 130.073 34.9398C129.059 35.4518 127.925 35.6928 126.672 35.6928C124.972 35.6928 123.45 35.2711 122.108 34.3976C120.765 33.5241 119.691 32.3193 118.916 30.7229C118.14 29.1265 117.722 27.3193 117.722 25.241C117.722 23.2832 118.11 21.5061 118.856 19.9097C119.632 18.3133 120.706 17.0182 122.078 16.0543C123.48 15.0905 125.061 14.6085 126.822 14.6085C127.896 14.6085 128.88 14.8194 129.775 15.2411C130.7 15.6628 131.446 16.2652 132.042 17.0182V5.27123H132.102ZM63.9925 24.7892L57.6678 6.56641H49.6725L60.1738 35.0301H67.4532L77.9545 6.56641H70.3172L63.9925 24.7892ZM19.7497 35.3916C17.1243 30.6024 6.623 11.5363 6.623 11.5363C6.623 11.5363 5.012 11.2953 3.43083 11.9881C3.401 11.9881 3.222 12.0784 3.222 12.0784C1.84967 12.7712 0.8055 14.0061 0.477333 15.5724C0.149167 17.0182 0 18.4941 0 19.97C0 30.994 8.89033 40 19.8392 40C21.2413 40 22.6137 39.8494 23.9562 39.5783C23.8667 39.5482 23.7772 39.5181 23.6877 39.4578C23.0313 39.1566 21.2413 38.1325 19.7497 35.3916ZM2.327 10.5423C2.44633 10.482 2.56567 10.4218 2.685 10.3616C3.25183 10.0905 4.41533 9.63868 5.84733 9.63868H14.0515L19.8093 20.0001L25.5672 9.63868H31.862C32.2797 8.88567 32.4885 7.37965 32.0708 5.87364C31.8023 4.87966 31.2057 3.52425 29.714 2.68088C26.671 0.933896 23.2402 0.000167415 19.8093 0.000167415C12.4405 -0.0299529 5.75783 4.00617 2.327 10.5423ZM33.294 10.9941C32.6377 12.1989 26.9097 22.6808 23.3893 29.0663C22.1065 31.3856 21.1817 33.1326 20.9132 33.6145C20.9132 33.6145 21.3308 34.8795 22.3452 36.0542C22.4645 36.2048 22.7628 36.5362 23.0015 36.747C23.3893 37.0783 23.807 37.3494 23.807 37.3494C24.523 37.8012 25.3583 38.1325 26.2235 38.2229C26.2533 38.2229 26.7307 38.2831 27.1185 38.253C28.2223 38.1627 29.0875 37.6807 29.0875 37.6807C35.5912 34.1868 39.6187 27.4398 39.6187 20.0001C39.6187 14.8495 37.59 9.78929 34.01 6.08448C34.0398 6.23508 34.0697 6.4158 34.0995 6.59652C34.2188 7.47001 34.2487 9.27724 33.294 10.9941Z"></path></svg>