<?xml version="1.0" encoding="UTF-8"?><svg id="Layer_1" xmlns="http://www.w3.org/2000/svg" xmlns:xlink="http://www.w3.org/1999/xlink" viewBox="0 0 134.78 71.95"><defs><style>.cls-1{fill:none;}.cls-2{fill:#093;}.cls-3{clip-path:url(#clippath);}</style><clipPath id="clippath"><rect class="cls-1" x="16.25" y="10.92" width="103.58" height="57.22"/></clipPath></defs><g class="cls-3"><path class="cls-2" d="M27.22,46.89h-5.1v5.42h5.1v-5.42ZM26.49,51.57h-3.63v-3.94h3.63v3.94ZM46.28,46.89h-5.1v5.42h5.1v-5.42ZM45.55,51.57h-3.63v-3.94h3.63v3.94ZM73.96,46.89h-5.1v5.42h5.1v-5.42ZM73.23,51.57h-3.63v-3.94h3.63v3.94ZM36.75,46.89h-5.1v5.42h5.1v-5.42ZM36.02,51.57h-3.63v-3.94h3.63v3.94ZM55.81,46.89h-5.1v5.42h5.1v-5.42ZM55.07,51.57h-3.63v-3.94h3.63v3.94ZM65.34,46.89h-5.1v5.42h5.1v-5.42ZM64.6,51.57h-3.63v-3.94h3.63v3.94ZM119.56,49.93l-11.48-9.59c-.22-.18-.53-.22-.79-.1-.26.12-.43.38-.43.67v8.01l-10.14-8.57c-.22-.19-.52-.23-.78-.1-.26.12-.43.38-.43.67v8.04l-10.49-8.61c-.22-.18-.53-.22-.78-.1-.26.12-.42.38-.42.67v20.07h-3.58v-20.07c0-.41-.33-.73-.74-.73h-12.23v-3.05c0-.2-.17-.37-.37-.37h-20.57V11.29c0-.21-.17-.37-.37-.37h-4.42c-.2,0-.37.16-.37.37v25.46h-4.36V11.29c0-.21-.16-.37-.37-.37h-4.42c-.2,0-.37.16-.37.37v25.46h-4.86c-.21,0-.37.17-.37.37v3.05h-9.45c-.41,0-.73.33-.73.73v26.43c0,.41.33.73.73.73h62.52c.41,0,.74-.33.74-.73v-4.89h3.58v4.96c0,.41.33.74.73.74h34.53c.41,0,.74-.33.74-.74v-16.9c0-.22-.1-.43-.27-.57M45.59,21.52h-3.68v-4.94h3.68v4.94ZM45.59,26.83h-3.68v-4.95h3.68v4.95ZM45.59,32.15h-3.68v-4.95h3.68v4.95ZM45.59,16.21h-3.68v-4.55h3.68v4.55ZM41.92,32.52h3.68v4.24h-3.68v-4.24ZM36.09,21.53h-3.68v-4.96h3.68v4.96ZM36.09,26.86h-3.68v-4.96h3.68v4.96ZM36.09,32.18h-3.68v-4.96h3.68v4.96ZM36.09,16.21h-3.68v-4.55h3.68v4.55ZM32.41,32.55h3.68v4.2h-3.68v-4.2ZM27.18,37.49h4.6c.06.07.16.11.26.11h4.42c.1,0,.2-.04.27-.11h4.56c.07.07.16.11.27.11h4.42c.1,0,.2-.04.26-.11h20.31v2.68H27.18v-2.68ZM57.96,60.48h-18.97v-2.99h18.97v2.99ZM38.99,60.85h18.97v2.78h-18.97v-2.78ZM38.99,64h18.97v2.59h-18.97v-2.59ZM78.77,66.59h-20.07v-9.83h-20.44v9.83h-20.53v-24.95h61.04v24.95ZM118.35,66.67h-33.06v-24.21l10.49,8.61c.22.18.53.22.78.1.26-.12.42-.38.42-.67v-8.01l10.14,8.57c.22.19.53.23.79.1.26-.12.43-.38.43-.67v-8.02l10.01,8.36v15.83ZM93.94,54.14c-1.17,0-2.11.96-2.11,2.14v5.77h4.23v-5.77c0-1.18-.95-2.14-2.12-2.14M95.31,61.3h-2.76v-5.03c0-.77.62-1.4,1.38-1.4s1.38.63,1.38,1.4v5.03ZM108.31,62.04h4.23v-5.77c0-1.18-.95-2.14-2.11-2.14s-2.12.96-2.12,2.14v5.77ZM109.05,56.27c0-.77.62-1.4,1.38-1.4s1.38.63,1.38,1.4v5.03h-2.75v-5.03ZM102.18,54.14c-1.17,0-2.11.96-2.11,2.14v5.77h4.23v-5.77c0-1.18-.95-2.14-2.12-2.14M103.56,61.3h-2.75v-5.03c0-.77.61-1.4,1.38-1.4s1.38.63,1.38,1.4v5.03Z"/></g></svg>