<?xml version="1.0" encoding="UTF-8"?><svg id="Layer_1" xmlns="http://www.w3.org/2000/svg" xmlns:xlink="http://www.w3.org/1999/xlink" viewBox="0 0 134.78 74.25"><defs><style>.cls-1{fill:none;}.cls-2{fill:#009945;}.cls-3{clip-path:url(#clippath);}</style><clipPath id="clippath"><rect class="cls-1" x="14.61" y="4.13" width="103.58" height="62.92"/></clipPath></defs><g class="cls-3"><path class="cls-2" d="M117.52,55.73h-7.42c-.75-3.34-2.29-5.59-4.03-7.1,2.34-9.63-5.56-15.3-5.62-15.34-4.76-3.64-10.05-2.02-11.84-1.3-1.16-2.28-2.57-3.77-3.33-4.47l5.22-2.2-6.71-4.97v6.53c-7.56-.9-9.99,3.05-10.73,5l-7.12-4.46-.3.1c-5.75,1.86-10.2,5.9-13.01,9.12-6.37-6.95-11.15-7.82-13.67-7.59v-4.93l-.3-.03c-3.97-.4-8.12,1.8-8.3,1.89l-.42.23,5.14,4.63c-3.29,3.33-1.75,10.11-1.09,12.42-7.36,5.67-11.05,10.96-12.01,12.46h-6.69c-.37,0-.67.3-.67.67s.3.67.67.67h5.89l-.05.08h89.27v-.08s7.12,0,7.12,0c.37,0,.67-.3.67-.67s-.3-.67-.67-.67M23.59,55.73c1.42-2.03,5.02-6.61,11.29-11.45.3-.23.59-.45.9-.68,1.73-1.28,3.64-2.57,5.75-3.83l8.52,2.62.27-.45s.73-1.2,2.03-2.84c.32-.4.67-.83,1.05-1.27,2.66-3.08,6.92-7.07,12.35-8.92l7.2,4.51.63.4.62.39,3.8,2.38.37.23.36-.24s3.19-2.1,7.5-1.07c.92.22,1.81.57,2.69,1.02.17.09.34.17.5.27.15.08.3.18.45.27,2.94,1.82,5.67,4.99,8.17,9.46l.18.33.38.02c.21,0,3.27.16,6.05,2.3.2.15.39.32.58.5,1.48,1.31,2.81,3.24,3.5,6.08,0,.03.02.05.02.08h-13.02s0-.05,0-.08c-.55-3.6-2.48-6.94-2.57-7.09l-.62-1.07v1.24c0,1.73-2.33,4.76-2.35,4.79l-.24.32,3.46,1.82.15.08h-13.67l.09-.08,4.98-4.74c3.74-4.2-2.68-10.07-2.9-10.27-.8-.89-1.58-1.62-2.35-2.22-.12-.1-.25-.2-.37-.29-.14-.1-.27-.19-.41-.28-1.12-.75-2.21-1.18-3.25-1.28-.1-.01-.2-.03-.3-.04-.04,0-.07,0-.11,0-.13,0-.26,0-.38,0-1.33.09-2.06.72-2.17.82l-10.42,10.86-.13.19c-.13.3-1.03,2.8,3.44,7.23.03.03.06.06.08.08h-8.35v-5.51l-10.05-2.7-2.09,8.12-.02.08h-21.65s.04-.05.06-.08M84.07,27.59l.3.04.06.05c.46.37,2.19,1.9,3.56,4.58.2.38.38.78.55,1.21.21.51.39,1.05.56,1.63-.85-.41-1.72-.71-2.6-.92-4.01-.95-7.1.45-8.14,1.03l-4.75-2.97c.58-1.75,2.75-5.71,10.45-4.65M84.45,27.15v-5.47l4.71,3.48-4.71,1.99ZM101.38,46.05c-1.03-.32-1.88-.45-2.34-.5-.85-1.49-1.72-2.83-2.63-4.04.65-.81,1.81-1.97,2.84-1.9.71.06,1.32.69,1.82,1.86.01.03.96,2.88.31,4.59M94.85,55.73l-3.89-2.04c.5-.69,1.65-2.38,2.08-3.85.6,1.2,1.62,3.51,2.01,5.9,0,.03.01.06.02.08h-.07l-.15-.08ZM67.56,55.73c-4.41-3.92-4.27-6.18-4.18-6.61l4.14-4.32c.22.72.67,1.86,1.59,3.25,1.36,2.04,4.04,4.98,9.11,7.51l-.17.16-.09.08h-10.31s-.06-.05-.09-.08M75.7,37.99c.14.02.29.05.44.09.16.04.31.09.48.15.02.01.05.02.07.03.19.07.38.15.58.25.16.08.32.17.49.27.95.56,2.06,1.46,3.35,2.89.06.04,4.8,4.39,3.42,7.56-.11.08-.23.14-.38.18-1.64.36-4.97-2.39-6.11-3.47-4.38-4.32-4.74-6.44-4.57-7.32,0-.02,0-.03.02-.05l.15-.16c.05-.05.74-.61,2.05-.41M72.8,39.29c.16,1.75,1.76,4.13,4.78,7.12.42.4,3.95,3.69,6.28,3.69.04,0,.08-.01.12-.01l-5.51,5.23c-5.06-2.51-7.73-5.41-9.07-7.43-.99-1.48-1.42-2.69-1.62-3.36l5.02-5.23ZM45.87,55.81l.02-.08,1.88-7.3,8.9,2.39v4.99h-10.8ZM104.89,47.72c-.99-.67-1.98-1.14-2.88-1.46.72-1.95-.26-4.89-.32-5.05-.61-1.43-1.42-2.2-2.39-2.28-1.35-.12-2.64,1.18-3.32,2.02-.82-1.05-1.66-1.98-2.52-2.79.92-1.19,3.11-3.63,5.43-3.65h.02c.44,0,.86.1,1.27.27,1.6,1.34,6.14,5.86,4.71,12.94M98.88,33.84c-2.6.02-4.91,2.57-5.92,3.86-1-.88-2.02-1.62-3.07-2.2-.2-.82-.43-1.59-.72-2.29,1.53-.59,5.78-1.82,9.71.63M31.1,26.36c1.12-.52,4.23-1.82,7.19-1.62v4.83c-1.04.3-1.93.87-2.34,1.16l-4.84-4.37ZM35.71,31.16s.06.05.09.05c.04,0,.08-.01.11-.03.02-.02,2.22-1.76,4.16-1.43.05,0,.09,0,.13-.03,2.58.16,6.68,1.64,11.98,7.44-1.36,1.61-2.29,2.97-2.73,3.64l-8.09-2.49-.25.15c-2.44,1.44-4.61,2.91-6.55,4.37-.66-2.47-1.94-8.8,1.16-11.67M68.89,38.07l-8.89-3.04-.66,6.14,4.69.44,4.85-3.54ZM60.08,40.57l.5-4.63,6.87,2.35-3.61,2.63-3.77-.35ZM81.65,62.48c-.19,0-.34-.15-.34-.34s.15-.33.34-.33h7.4c.18,0,.33.15.33.33s-.15.34-.33.34h-7.4ZM66.33,22.2c.66-.79,2.64-2.74,6.34-2.88.2.02.34.14.35.32,0,.19-.14.34-.32.35-4.18.15-6.03,2.87-6.05,2.9l-.23.35-.29-.31c-2.59-2.77-6.71-2.46-6.75-2.45-.18.02-.35-.12-.36-.31-.02-.18.12-.35.3-.36.17-.02,4.21-.33,7.02,2.38M75.92,7.6c.01-.18.18-.33.35-.31.25.01,5.92.4,9.19,4.78.94-.87,4.07-3.32,9.34-2.74.19.02.32.18.3.37-.02.18-.19.31-.37.3-5.88-.65-9.02,2.78-9.05,2.82l-.28.32-.24-.35c-3.05-4.41-8.86-4.82-8.92-4.82-.19-.01-.33-.17-.32-.36M15.07,62.15c0-.18.15-.33.33-.33h20.15c.19,0,.34.15.34.33s-.15.34-.34.34H15.4c-.18,0-.33-.15-.33-.34M37.97,66.71c0,.19-.15.34-.34.34H15.4c-.18,0-.33-.15-.33-.34s.15-.33.33-.33h22.23c.19,0,.34.15.34.33M117.72,66.71c0,.19-.15.34-.33.34h-20.15c-.18,0-.34-.15-.34-.34s.15-.33.34-.33h20.15c.18,0,.33.15.33.33M75.46,62.48h-34.41c-.19,0-.34-.15-.34-.34s.15-.33.34-.33h34.41c.18,0,.33.15.33.33s-.15.34-.33.34M92.08,66.71c0,.19-.15.34-.34.34h-34.41c-.19,0-.34-.15-.34-.34s.15-.33.34-.33h34.41c.18,0,.34.15.34.33M51.48,66.71c0,.19-.15.34-.34.34h-7.4c-.18,0-.34-.15-.34-.34s.15-.33.34-.33h7.4c.18,0,.34.15.34.33M43.41,5.37c-.02-.18.12-.35.3-.36.24-.03,5.91-.52,9.83,3.29.79-1.01,3.51-3.92,8.79-4.16.21,0,.34.13.35.32,0,.18-.13.34-.31.35-5.91.28-8.48,4.15-8.51,4.19l-.23.36-.29-.31c-3.7-3.89-9.5-3.38-9.56-3.37-.18.01-.35-.12-.37-.3M117.72,62.15c0,.18-.15.34-.33.34h-22.24c-.18,0-.34-.15-.34-.34s.15-.33.34-.33h22.24c.18,0,.33.15.33.33M46.97,35.01c-3.71-3.72-6.9-3.38-6.93-3.37-.1.01-.18-.06-.19-.14-.01-.09.06-.17.14-.19.14-.02,3.38-.37,7.21,3.47.07.06.07.17,0,.24-.03.03-.08.05-.12.05-.04,0-.09-.02-.12-.05M52.83,46.86c.03-.09.13-.13.21-.1l5.34,1.86c.08.03.13.13.1.22-.02.07-.09.11-.16.11-.02,0-.04,0-.06-.01l-5.34-1.86c-.09-.03-.13-.13-.1-.21M41.24,43.98c.04.08,0,.17-.06.21,0,0,0,.01-.01.01-.06.03-5.99,3.1-10.38,8.06-.03.04-.08.06-.13.06-.04,0-.08-.01-.11-.04-.07-.06-.08-.17-.01-.24,3.66-4.13,8.36-6.96,9.94-7.84.33-.19.53-.29.54-.3.08-.04.18,0,.23.08"/></g></svg>