<svg width="171" height="28" viewBox="0 0 171 28" fill="none" xmlns="http://www.w3.org/2000/svg">
<path d="M6.13 9.29011C5.90472 8.92736 5.57786 8.63875 5.19 8.46011C4.74759 8.25927 4.26577 8.16017 3.78 8.17011H1V15.2801H2.47V12.7701H3.76C4.47701 12.8161 5.18669 12.6032 5.76 12.1701C5.99526 11.9665 6.18135 11.7123 6.30432 11.4266C6.42728 11.1408 6.48393 10.8309 6.47 10.5201C6.46974 10.0869 6.35226 9.66192 6.13 9.29011ZM4.67 11.2901C4.4196 11.493 4.10145 11.5931 3.78 11.5701H2.47V9.35011H3.82C3.97734 9.34616 4.13383 9.37426 4.27996 9.43272C4.42609 9.49117 4.55879 9.57874 4.67 9.69011C4.87699 9.91952 4.98484 10.2215 4.97 10.5301C4.97921 10.6741 4.95717 10.8183 4.90539 10.953C4.8536 11.0876 4.7733 11.2094 4.67 11.3101V11.2901Z" fill="currentColor"/>
<path d="M12.9199 9.71995C12.6925 9.21592 12.3199 8.79115 11.8499 8.49995C11.3754 8.20781 10.8269 8.05853 10.2699 8.06995C9.71283 8.05853 9.16429 8.20781 8.68987 8.49995C8.21981 8.79115 7.84726 9.21592 7.61987 9.71995C7.35893 10.3012 7.22919 10.9329 7.23987 11.5699V11.9199C7.23703 12.5476 7.37008 13.1685 7.62987 13.7399C7.85214 14.2577 8.22494 14.6967 8.69987 14.9999C9.18076 15.2811 9.7278 15.4293 10.2849 15.4293C10.8419 15.4293 11.389 15.2811 11.8699 14.9999C12.3354 14.7018 12.7038 14.2744 12.9299 13.7699C13.1894 13.1921 13.3159 12.5632 13.2999 11.9299V11.6199C13.318 10.9661 13.1881 10.3165 12.9199 9.71995ZM11.8099 11.9099C11.8461 12.5004 11.7069 13.0884 11.4099 13.5999C11.2864 13.784 11.1175 13.9332 10.9196 14.033C10.7216 14.1329 10.5013 14.18 10.2799 14.1699C10.0524 14.1794 9.8265 14.1289 9.62469 14.0236C9.42287 13.9183 9.25224 13.7619 9.12987 13.5699C8.83283 13.0584 8.69366 12.4704 8.72987 11.8799V11.5399C8.69565 10.9528 8.83475 10.3686 9.12987 9.85995C9.25378 9.6732 9.42386 9.52167 9.6236 9.42004C9.82335 9.31842 10.046 9.27016 10.2699 9.27995C10.4941 9.26816 10.7174 9.31554 10.9175 9.41734C11.1176 9.51915 11.2874 9.67179 11.4099 9.85995C11.7088 10.3744 11.8481 10.9662 11.8099 11.5599V11.9099Z" fill="currentColor"/>
<path d="M19.8999 13.2299L20.8599 8.16992H22.3199L20.7399 15.2799H19.2699L18.1099 10.5199L16.9499 15.2799H15.4799L13.8999 8.16992H15.3599L16.3199 13.2199L17.4899 8.16992H18.7299L19.8999 13.2299Z" fill="currentColor"/>
<path d="M27.3899 12.1999H24.5699V14.0999H27.8699V15.2799H23.1099V8.16992H27.8599V9.35992H24.5699V11.0499H27.3899V12.1999Z" fill="currentColor"/>
<path d="M32.73 12.3C33.1328 12.1491 33.4812 11.8809 33.73 11.53C33.9352 11.1613 34.029 10.7409 34 10.32C34.0173 10.0204 33.9649 9.7209 33.8469 9.44501C33.729 9.16912 33.5486 8.92435 33.32 8.72997C32.7547 8.32251 32.0653 8.12451 31.37 8.16997H28.73V15.28H30.2V12.67H31.37L32.7 15.28H34.27V15.21L32.73 12.3ZM32.23 11.21C31.9923 11.4076 31.6886 11.5077 31.38 11.49H30.2V9.34997H31.37C31.5286 9.337 31.6882 9.35599 31.8394 9.4058C31.9905 9.45561 32.1301 9.53524 32.25 9.63997C32.4475 9.85445 32.5518 10.1386 32.54 10.43C32.5479 10.5747 32.5243 10.7194 32.4708 10.8541C32.4173 10.9887 32.3351 11.1102 32.23 11.21Z" fill="currentColor"/>
<path d="M39.3901 12.1999H36.5801V14.0999H39.8801V15.2799H35.1201V8.16992H39.8701V9.35992H36.5801V11.0499H39.3901V12.1999Z" fill="currentColor"/>
<path d="M45.7602 9.7899C45.4985 9.28556 45.0954 8.86852 44.6002 8.5899C44.0904 8.30501 43.5142 8.16011 42.9302 8.1699H40.7402V15.2799H42.9402C43.5275 15.2802 44.1053 15.1323 44.6202 14.8499C45.1089 14.5662 45.5076 14.1502 45.7702 13.6499C46.0464 13.1051 46.1838 12.5005 46.1702 11.8899V11.5599C46.1841 10.9449 46.0431 10.3362 45.7602 9.7899ZM44.6902 11.9299C44.7209 12.5029 44.559 13.0696 44.2302 13.5399C44.0679 13.7283 43.8645 13.8768 43.6356 13.9739C43.4067 14.071 43.1585 14.1141 42.9102 14.0999H42.2102V9.3499H42.9302C43.177 9.33571 43.4237 9.37889 43.651 9.47605C43.8783 9.57321 44.08 9.72171 44.2402 9.9099C44.572 10.3934 44.7306 10.9749 44.6902 11.5599V11.9299Z" fill="currentColor"/>
<path d="M54.7 12.1699C54.4842 11.8941 54.1808 11.7001 53.84 11.6199C54.1398 11.5061 54.3979 11.3038 54.58 11.0399C54.7602 10.7672 54.8542 10.4467 54.85 10.1199C54.8673 9.84016 54.8152 9.56048 54.6983 9.30576C54.5814 9.05103 54.4034 8.82916 54.18 8.65989C53.5838 8.28477 52.8821 8.11285 52.18 8.16989H49.73V15.2799H52.49C53.156 15.3127 53.814 15.1227 54.36 14.7399C54.5787 14.5482 54.7503 14.3086 54.8613 14.0398C54.9723 13.7709 55.0198 13.4801 55 13.1899C55.0153 12.8261 54.9098 12.4675 54.7 12.1699ZM51.19 9.34989H52.19C52.5023 9.32921 52.8133 9.40609 53.08 9.56989C53.1772 9.65514 53.2531 9.76193 53.3017 9.88172C53.3503 10.0015 53.3703 10.131 53.36 10.2599C53.36 10.8399 52.99 11.1299 52.25 11.1499H51.19V9.34989ZM53.26 13.8499C53.029 14.0282 52.7413 14.117 52.45 14.0999H51.19V12.1799H52.54C52.6756 12.1618 52.8135 12.1752 52.9431 12.219C53.0727 12.2629 53.1904 12.336 53.2871 12.4327C53.3839 12.5295 53.457 12.6472 53.5009 12.7768C53.5447 12.9063 53.5581 13.0443 53.54 13.1799C53.5457 13.3053 53.5235 13.4304 53.4751 13.5463C53.4267 13.6621 53.3532 13.7658 53.26 13.8499Z" fill="currentColor"/>
<path d="M58.2902 11.3699L59.7702 8.16992H61.3702L59.0002 12.6999V15.2799H57.5502V12.6999L55.2202 8.16992H56.8202L58.2902 11.3699Z" fill="currentColor"/>
<path fill-rule="evenodd" clip-rule="evenodd" d="M146.31 11.5698H143.31V12.1498C143.304 12.2397 143.304 12.3299 143.31 12.4198H143.24C142.391 11.6535 141.273 11.2544 140.13 11.3098C136.65 11.3098 134.98 14.0198 134.98 16.9398C134.98 19.8598 136.7 22.7098 140.15 22.7098C140.689 22.7509 141.23 22.6636 141.729 22.455C142.228 22.2464 142.671 21.9224 143.02 21.5098C143.02 21.5098 143.02 21.7998 143.02 21.9298V22.3098C143.02 23.9998 141.75 24.5198 140.37 24.5198C139.414 24.5087 138.468 24.3223 137.58 23.9698C137.3 23.8598 137.11 23.9698 136.95 24.2998L136.05 26.6998C137.408 27.3508 138.894 27.6923 140.4 27.6998C143.54 27.6998 146.88 26.1698 146.88 21.9798V12.1398C146.884 12.0638 146.873 11.9877 146.845 11.9166C146.818 11.8455 146.777 11.7809 146.723 11.727C146.669 11.6732 146.604 11.6314 146.533 11.6043C146.462 11.5772 146.386 11.5654 146.31 11.5698ZM141.09 19.4998C139.55 19.4998 138.89 18.2298 138.89 16.8098C138.846 16.5231 138.866 16.2304 138.947 15.952C139.027 15.6736 139.168 15.4161 139.358 15.1973C139.548 14.9785 139.784 14.8037 140.048 14.685C140.313 14.5663 140.6 14.5065 140.89 14.5098C142.05 14.5098 143.12 14.9598 143.12 16.9898C143.12 19.0198 142.09 19.4998 141.09 19.4998Z" fill="currentColor"/>
<path fill-rule="evenodd" clip-rule="evenodd" d="M97.6602 11.5802H100.33V12.5802C100.343 12.82 100.343 13.0603 100.33 13.3002C100.683 12.7058 101.181 12.2106 101.778 11.8608C102.374 11.511 103.049 11.3182 103.74 11.3002C104.418 11.2541 105.093 11.4162 105.676 11.7647C106.258 12.1132 106.72 12.6315 107 13.2502C107.41 12.6533 107.96 12.1656 108.601 11.8292C109.242 11.4929 109.956 11.3182 110.68 11.3202C112.77 11.3202 114.4 12.4502 114.4 15.6102V22.5002C114.402 22.5736 114.388 22.6466 114.36 22.7146C114.332 22.7827 114.291 22.8443 114.239 22.8958C114.186 22.9473 114.124 22.9875 114.055 23.0141C113.987 23.0406 113.914 23.0529 113.84 23.0502H110.54V16.2602C110.54 15.4102 110.39 14.8102 109.65 14.8102C108.43 14.8102 107.78 15.7002 107.53 16.9702C107.462 17.4133 107.435 17.862 107.45 18.3102V23.0502H103.59V16.2602C103.59 15.4102 103.44 14.8102 102.7 14.8102C101.5 14.8102 100.88 15.6602 100.61 16.8802C100.527 17.352 100.49 17.831 100.5 18.3102V23.0502H96.6302V12.5102C96.6267 12.381 96.6508 12.2526 96.7008 12.1335C96.7508 12.0144 96.8256 11.9073 96.9202 11.8193C97.0148 11.7313 97.127 11.6645 97.2494 11.6233C97.3719 11.582 97.5017 11.5673 97.6302 11.5802" fill="currentColor"/>
<path fill-rule="evenodd" clip-rule="evenodd" d="M90.09 11.3102C88.3703 11.3222 86.6928 11.8443 85.27 12.8102L86.41 15.1202C86.58 15.4802 86.73 15.4502 86.92 15.3402C87.7636 14.8176 88.7205 14.5055 89.71 14.4302C90.71 14.4302 91.4 14.7502 91.4 15.7002V15.9002H91.24C89.46 15.9002 84.58 16.2802 84.58 19.6202C84.5745 19.7101 84.5745 19.8003 84.58 19.8902L83.31 18.0902C83.2898 18.05 83.2598 18.0155 83.2229 17.9898C83.186 17.9641 83.1432 17.9481 83.0985 17.9431C83.0538 17.9381 83.0086 17.9444 82.9669 17.9614C82.9252 17.9783 82.8885 18.0054 82.86 18.0402C81.7668 19.0605 80.3525 19.6687 78.86 19.7602C78.2515 19.7516 77.6511 19.6203 77.0947 19.3741C76.5383 19.1279 76.0373 18.7719 75.6217 18.3274C75.2062 17.883 74.8847 17.3592 74.6765 16.7874C74.4682 16.2157 74.3776 15.6078 74.41 15.0002C74.3743 14.3985 74.4655 13.796 74.6777 13.2318C74.8899 12.6676 75.2184 12.1544 75.6417 11.7253C76.0651 11.2963 76.574 10.9611 77.1353 10.7414C77.6966 10.5217 78.2978 10.4225 78.9 10.4502C80.3772 10.5348 81.7843 11.1082 82.9 12.0802L84.7 9.11019C83.8985 8.35671 82.9555 7.76983 81.9256 7.3836C80.8956 6.99736 79.7992 6.81945 78.7 6.86019C77.6065 6.8264 76.5174 7.01419 75.4984 7.41226C74.4794 7.81034 73.5515 8.41048 72.7704 9.17655C71.9894 9.94262 71.3715 10.8588 70.9538 11.8699C70.5361 12.8811 70.3273 13.9663 70.34 15.0602C70.3029 16.1634 70.4946 17.2624 70.903 18.288C71.3113 19.3135 71.9275 20.2435 72.7127 21.0193C73.498 21.7951 74.4353 22.4001 75.4657 22.796C76.496 23.192 77.5972 23.3705 78.7 23.3202C80.9638 23.3538 83.1556 22.5243 84.83 21.0002C85.1195 21.722 85.6264 22.336 86.2803 22.757C86.9343 23.1781 87.703 23.3854 88.48 23.3502C89.122 23.3915 89.7633 23.258 90.3356 22.964C90.9078 22.6699 91.3897 22.2263 91.73 21.6802C91.7141 21.9166 91.7141 22.1538 91.73 22.3902V23.0802H94.67C94.67 23.0802 95.25 23.0802 95.25 22.5502V16.0002C95.25 13.0702 93.3099 11.3102 90.09 11.3102ZM91.44 18.3102C91.4123 18.8132 91.2073 19.2902 90.8613 19.6564C90.5152 20.0225 90.0506 20.2542 89.55 20.3102C88.79 20.3102 88.46 19.8902 88.46 19.3102C88.46 18.3102 89.86 18.0002 91.09 18.0002H91.44V18.3102Z" fill="currentColor"/>
<path fill-rule="evenodd" clip-rule="evenodd" d="M120.67 11.3101C118.953 11.3211 117.279 11.8433 115.86 12.8101L117 15.1201C117.17 15.4801 117.31 15.4501 117.51 15.3401C118.351 14.819 119.304 14.5069 120.29 14.4301C121.29 14.4301 121.99 14.7401 121.99 15.7001V15.9001H121.83C120.05 15.9001 115.17 16.2801 115.17 19.6201C115.165 20.1245 115.264 20.6246 115.461 21.0891C115.658 21.5536 115.948 21.9725 116.314 22.3197C116.68 22.6669 117.114 22.935 117.588 23.1071C118.062 23.2792 118.567 23.3517 119.07 23.3201C119.712 23.3603 120.353 23.2263 120.925 22.9324C121.497 22.6384 121.979 22.1954 122.32 21.6501H122.37C122.338 21.8853 122.321 22.1225 122.32 22.3601V23.0501H125.26C125.26 23.0501 125.84 23.0501 125.84 22.5201V16.0001C125.84 13.0701 123.9 11.3101 120.67 11.3101ZM122.03 18.3101C122.002 18.8131 121.797 19.2901 121.451 19.6562C121.105 20.0224 120.641 20.2541 120.14 20.3101C119.38 20.3101 119.05 19.8901 119.05 19.3101C119.05 18.3101 120.45 18.0001 121.68 18.0001H122L122.03 18.3101Z" fill="currentColor"/>
<path fill-rule="evenodd" clip-rule="evenodd" d="M126.87 11.5798H130.57V13.5198C130.583 13.7563 130.583 13.9933 130.57 14.2298C130.808 13.4333 131.289 12.7308 131.945 12.2201C132.601 11.7093 133.399 11.4156 134.23 11.3798C134.376 11.3656 134.524 11.3656 134.67 11.3798V14.7598C134.671 14.8123 134.66 14.8643 134.639 14.9121C134.617 14.9599 134.585 15.0021 134.544 15.0357C134.504 15.0694 134.456 15.0935 134.406 15.1063C134.355 15.1191 134.302 15.1203 134.25 15.1098H133.89C133.238 15.0556 132.586 15.2238 132.041 15.5869C131.497 15.95 131.091 16.4867 130.89 17.1098C130.742 17.616 130.674 18.1425 130.69 18.6698V23.0098H127.41C127.337 23.0167 127.264 23.0084 127.194 22.9855C127.125 22.9627 127.061 22.9256 127.006 22.8768C126.952 22.8279 126.908 22.7683 126.878 22.7017C126.847 22.6351 126.831 22.563 126.83 22.4898L126.87 11.5798Z" fill="currentColor"/>
<path fill-rule="evenodd" clip-rule="evenodd" d="M168.62 19.2501C167.804 19.7685 166.866 20.0649 165.9 20.1101C165.282 20.1489 164.672 19.9626 164.181 19.5857C163.69 19.2088 163.352 18.6668 163.23 18.0601H170.47C170.47 18.0601 170.56 17.2401 170.56 16.8601C170.56 13.6801 168.64 11.3101 165.26 11.3101C163.901 11.2381 162.562 11.6616 161.492 12.5021C160.421 13.3425 159.692 14.5428 159.44 15.8801V11.5801H156.06C155.6 11.5801 155.58 12.0901 155.58 12.0901V16.6601C155.58 18.3801 154.81 19.8201 153.16 19.8201C152.35 19.8201 151.93 19.3801 151.93 18.3101V11.5801H148.56C148.11 11.5801 148.08 12.0601 148.08 12.0601V19.0601C148.08 22.2901 149.88 23.3601 152.15 23.3601C152.873 23.3827 153.589 23.2086 154.222 22.8564C154.854 22.5042 155.379 21.9871 155.74 21.3601C155.727 21.5966 155.727 21.8336 155.74 22.0701V23.0701H159.44V18.6701C159.74 20.0538 160.525 21.2846 161.653 22.1409C162.78 22.9971 164.177 23.4224 165.59 23.3401C167.367 23.3616 169.096 22.772 170.49 21.6701L169.3 19.4101C169.15 19.0901 168.9 19.0801 168.62 19.2501ZM165.17 14.2501C165.378 14.2565 165.584 14.3045 165.773 14.3914C165.963 14.4784 166.133 14.6024 166.274 14.7562C166.414 14.9101 166.523 15.0905 166.593 15.287C166.662 15.4835 166.692 15.692 166.68 15.9001H163.32C163.367 15.4403 163.581 15.0137 163.922 14.702C164.264 14.3902 164.708 14.2151 165.17 14.2101V14.2501Z" fill="currentColor"/>
<path fill-rule="evenodd" clip-rule="evenodd" d="M71.4199 2.68979H170.63V0.279785H71.4199V2.68979Z" fill="currentColor"/>
</svg>
