<svg width="10" height="5.63" viewBox="0 0 16 9" version="1.1" xmlns="http://www.w3.org/2000/svg" xmlns:xlink="http://www.w3.org/1999/xlink"><path fill="currentColor" d="M15.7442581,0.752209222 L15.2201563,0.249621473 C15.0552118,0.0926634549 14.8357629,0.00619408121 14.6012244,0.00619408121 C14.366816,0.00619408121 14.1471069,0.0926634549 13.9821625,0.249621473 L8.00357726,5.94346869 L2.01809771,0.24330351 C1.85341344,0.0863454921 1.63370434,0 1.39929593,0 C1.16488752,0 0.945048334,0.0863454921 0.780233986,0.24330351 L0.256002081,0.742794219 C-0.0853340271,1.06761184 -0.0853340271,1.59671025 0.256002081,1.92152787 L7.382434,8.73266345 C7.54711827,8.88949759 7.76656721,9 8.00305694,9 L8.00578866,9 C8.24032716,9 8.4597761,8.88937371 8.62446036,8.73266345 L15.7442581,1.93998624 C15.9092025,1.7831521 15.9997398,1.56784584 16,1.34461115 C16,1.12125258 15.9092025,0.908919477 15.7442581,0.752209222 Z"></path></svg>