<svg version="1.1" xmlns="http://www.w3.org/2000/svg" x="0" y="0" viewBox="0 0 41 53" style="enable-background:new 0 0 41 53" xml:space="preserve">
    <path d="M40.8 20.4C40.8 9.1 31.7 0 20.4 0S0 9.1 0 20.4c0 11.3 20.4 32.4 20.4 32.4s20.4-21.1 20.4-32.4" style="fill-rule:evenodd;clip-rule:evenodd"/>
    <path fill="#fff" d="m20.5 13.5-8.6 7.1v7.2c0 .3.1.5.3.7.2.2.4.3.7.3h5.8V23h3.9v5.8h5.8c.3 0 .5-.1.7-.3.2-.2.3-.4.3-.7v-7.3l-8.9-7z"/>
    <path fill="#fff" d="m32.5 19-3.3-2.7v-6.1c0-.1 0-.3-.1-.3-.1-.1-.2-.1-.3-.1h-2.9c-.1 0-.3 0-.3.1-.1.1-.1.2-.1.3V13l-3.9-3c-.3-.3-.7-.4-1.1-.4-.4 0-.8.1-1.1.4L8.5 19c-.1.1-.2.2-.2.3 0 .1 0 .3.1.4l.9 1.1c.1.1.2.1.3.2.1 0 .2 0 .4-.1l10.4-8.7 10.4 8.7c.1.1.2.1.3.1.1 0 .2-.1.3-.2l.9-1.1c.1-.1.1-.2.1-.4.2-.1.2-.3.1-.3z"/>
</svg>
