<?xml version="1.0" encoding="UTF-8"?><svg id="Layer_1" xmlns="http://www.w3.org/2000/svg" xmlns:xlink="http://www.w3.org/1999/xlink" viewBox="0 0 247.94 229.19"><defs><style>.cls-1,.cls-2,.cls-3,.cls-4,.cls-5,.cls-6,.cls-7,.cls-8,.cls-9{fill:none;}.cls-2,.cls-3,.cls-4,.cls-5,.cls-6,.cls-7,.cls-8{stroke:#12a64f;}.cls-2,.cls-3,.cls-4,.cls-5,.cls-9{stroke-miterlimit:10;}.cls-2,.cls-5,.cls-8,.cls-9{stroke-width:1.64px;}.cls-2,.cls-6,.cls-7,.cls-8{stroke-linecap:round;}.cls-3,.cls-6{stroke-width:.41px;}.cls-4,.cls-7{stroke-width:.82px;}.cls-10{clip-path:url(#clippath-1);}.cls-11{clip-path:url(#clippath-3);}.cls-12{clip-path:url(#clippath-2);}.cls-6,.cls-7,.cls-8{stroke-linejoin:round;}.cls-13{fill:#fff;}.cls-9{stroke:#093;}.cls-14{fill:#12a64f;}.cls-15{clip-path:url(#clippath);}</style><clipPath id="clippath"><rect class="cls-1" x="25.61" y="10.92" width="211.69" height="214.3"/></clipPath><clipPath id="clippath-1"><rect class="cls-1" x="25.61" y="10.92" width="211.69" height="214.3"/></clipPath><clipPath id="clippath-2"><rect class="cls-1" x="25.61" y="10.92" width="211.69" height="214.3"/></clipPath><clipPath id="clippath-3"><rect class="cls-1" x="25.61" y="10.92" width="211.69" height="214.3"/></clipPath></defs><g class="cls-15"><path class="cls-9" d="M53.4,203.43s.78,3.1,5.37,6.65l4.38,3.43s2.99,2.14,3.3,5.5c.1,1.13-.48,2.21-1.45,2.8l-2.56,1.55c-1.2.73-2.59,1.09-3.99,1.03l-2.99-.11c-2.42-.09-4.75-.96-6.64-2.47l-2.05-1.64c-.6-.48-1.05-1.12-1.29-1.84l-.3-.88c-.25-.74-.81-1.35-1.53-1.66l-1.53-.67c-.17-.07-.35-.14-.52-.19l-1.26-.39c-.53-.16-1.01-.45-1.4-.84l-1.75-1.72c-.66-.65-1.09-1.49-1.23-2.41-.19-1.21-.26-2.86.47-3.9"/></g><path class="cls-4" d="M77.77,81.46l-1.08,5M93.28,49.25h-8.49l-3.69,12.44-1.34,6.71M86.39,76.54l6.08-25.81-7.27,10.04-2.27,12.05"/><g class="cls-10"><path class="cls-5" d="M63.5,94.64l.86,80.19c.05,4.27,3.52,7.71,7.8,7.71h29.36c4.27,0,7.75-3.44,7.8-7.71l.86-80.19"/><path class="cls-4" d="M64.12,154.94h-.75c-1.2,0-2.17.97-2.17,2.17v9.97c0,1.2.97,2.17,2.17,2.17h.75M109.53,154.94h.75c1.2,0,2.17.97,2.17,2.17v9.97c0,1.2-.97,2.17-2.17,2.17h-.75"/></g><path class="cls-3" d="M107.76,76.12h-39.96M110.45,83.02h-31.66M77.38,83.02h-15.77M116.22,91.63h-54.61"/><g class="cls-12"><path class="cls-8" d="M69.46,82.34h-10.33l-2.88,3.91,1.39,5.7,4.11,2.91h53.58c.58,0,1.05-.47,1.05-1.05v-1.88c0-.58-.47-1.05-1.05-1.05h-.39v-2.39c0-.78-.3-1.53-.84-2.09l-3.14-3.25c-.5-.52-1.18-.8-1.89-.8h-5.4v-5.58s.95,0,.95,0c3.64,0,6.59-2.89,6.59-6.46V31.6c0-3.57-2.95-6.46-6.59-6.46h-35.43c-3.64,0-6.59,2.89-6.59,6.46v38.7c0,3.57,2.95,6.46,6.59,6.46h.28v5.58Z"/><path class="cls-13" d="M46.92,30.54l-.38-3.98c-.22-2.33.22-4.67,1.29-6.75l.88-1.72c.92-1.8,2.52-3.16,4.43-3.79l2.67-.87c1.76-.58,3.69-.38,5.29.55l4.81,2.78c.89.51,1.61,1.27,2.08,2.18l.17.34c.29.56.44,1.18.45,1.81l-.38,10.13-.55-.04c-.34-.02-.64.21-.72.54l-.47,3.41c-.08.36-.44.6-.81.53-.35-.07-.69.14-.79.48l-.46,1.49s-.02.06-.02.1l-.25,1.08c-.03.2-.15.38-.32.48l-.8.79"/><path class="cls-8" d="M46.92,30.54l-.38-3.98c-.22-2.33.22-4.67,1.29-6.75l.88-1.72c.92-1.8,2.52-3.16,4.43-3.79l2.67-.87c1.76-.58,3.69-.38,5.29.55l4.81,2.78c.89.51,1.61,1.27,2.08,2.18l.17.34c.29.56.44,1.18.45,1.81l-.38,10.13-.55-.04c-.34-.02-.64.21-.72.54l-.47,3.41c-.08.36-.44.6-.81.53-.35-.07-.69.14-.79.48l-.46,1.49s-.02.06-.02.1l-.25,1.08c-.03.2-.15.38-.32.48l-.8.79"/><path class="cls-6" d="M61.09,29.73h0c-.86-1.02-1.04-2.45-.46-3.66l.76-1.59c.28-.58.9-.91,1.54-.81l.1.02c.33.05.59.32.61.66l.44,3.63,2.18-4.03,2.37-1.48"/><path class="cls-13" d="M60.35,105.05l1.35-3.38s.2-7.48-.17-12.29c-.02-.31.11-.59.33-.8.34-.34.76-1.3.56-3.97,0,0-.39-7.53.72-13.96,0,0,4.26,2.72,10.25,9.47,0,0,3.21,2.88,7.26.28,0,0,3.66-1.88,3.77-3.77,0,0,0-2.83-5.15-8.81l-2.79-3.49c-.95-1.19-1.82-2.43-2.64-3.71-.92-1.46-2.38-3.54-3.88-4.87l-5.32-13.79s-1.16-3.21-7.65-5.37c0,0-.33-1.77-3.93-3.43l-7.19-3.06c-1.6-.68-3.47-.45-4.8.67-.52.44-1.08,1.01-1.64,1.72l-1.44,1.83-.29.07c-1.5.37-2.7,1.5-3.14,2.98l-.41,1.36s-4.14,3.77-4.21,16.84l-.04,17.74s-1.27,2.33-.22,6.32c0,0-2.33,3.54.17,9.92,0,0-1.02,3.54-.95,8.2v.55s-6.58,10.03,1.73,23.21l8.59,13.96s1.22,3.1,1.99,14.95c0,0,.11,4.15,2.05,4.88,0,0-2.38.83-3.1,6.65,0,0-1.39,10.91-3.88,24.21,0,0-3.49,15.57,2.05,16.95,0,0-3.16.55-1.38,3.99,0,0,1.66,3.88,4.93,2.27,0,0,6.48-3.88,11.52-5.93,0,0-.17-1.33.39-2.99,0,0,1.78-4.33-1.48-6.34-.35-.22-.63-.55-.83-.9l-1.12-1.95,2.32-12.91c.15-.84.43-1.66.82-2.42l3.62-7.07c.55-1.08.84-2.27.84-3.48v-2.32l2.28-4.19c.75-1.38,1.25-2.88,1.48-4.44.47-3.18,1.09-9.14.65-16.53-.02-.44.02-.88.14-1.3l.5-1.72c.13-.46.18-.93.14-1.4l-2.02-22.67c-.09-1.03-.25-2.04-.47-3.05l-.49-2.2.2-.5Z"/><path class="cls-9" d="M51.87,182.79s2.9,1.31,9.43,1.97c.73.07,1.35.56,1.6,1.25l.52,1.43c.17.46.05.97-.29,1.32l-.53.54c-.31.31-.67.56-1.08.74-1.27.57-4.44,1.67-10.61,2.18M34.07,127.09l2.27,15.53c.1.71-.02,1.43-.36,2.06l-.76,1.41c-.25.47-.39.99-.4,1.53l-.04,2.34c0,.29.09.57.27.8l.5.64-.87.49c-.39.22-.63.61-.65,1.05l-.28,6.39c-.01.32-.11.63-.28.9l-.44.69c-.23.36-.33.79-.27,1.22l.64,4.87c.18,1.37.23,2.75.16,4.12l-.4,7.78c-.06,1.12.54,2.18,1.53,2.7l2.2,1.16M60.35,105.05l1.35-3.38s.2-7.48-.17-12.29c-.02-.31.11-.59.33-.8.34-.34.76-1.3.56-3.97,0,0-.39-7.53.72-13.96,0,0,4.26,2.72,10.25,9.47,0,0,3.21,2.88,7.26.28,0,0,3.66-1.88,3.77-3.77,0,0,0-2.83-5.15-8.81l-2.79-3.49c-.95-1.19-1.82-2.43-2.64-3.71-.92-1.46-2.38-3.54-3.88-4.87l-5.32-13.79s-1.16-3.21-7.65-5.37c0,0-.33-1.77-3.93-3.43l-7.19-3.06c-1.6-.68-3.47-.45-4.8.67-.52.44-1.08,1.01-1.64,1.72l-1.44,1.83-.29.07c-1.5.37-2.7,1.5-3.14,2.98l-.41,1.36s-4.14,3.77-4.21,16.84l-.04,17.74s-1.27,2.33-.22,6.32c0,0-2.33,3.54.17,9.92,0,0-1.02,3.54-.95,8.2v.55s-6.58,10.03,1.73,23.21l8.59,13.96s1.22,3.1,1.99,14.95c0,0,.11,4.15,2.05,4.88,0,0-2.38.83-3.1,6.65,0,0-1.39,10.91-3.88,24.21,0,0-3.49,15.57,2.05,16.95,0,0-3.16.55-1.38,3.99,0,0,1.66,3.88,4.93,2.27,0,0,6.48-3.88,11.52-5.93,0,0-.17-1.33.39-2.99,0,0,1.78-4.33-1.48-6.34-.35-.22-.63-.55-.83-.9l-1.12-1.95,2.32-12.91c.15-.84.43-1.66.82-2.42l3.62-7.07c.55-1.08.84-2.27.84-3.48v-2.32l2.28-4.19c.75-1.38,1.25-2.88,1.48-4.44.47-3.18,1.09-9.14.65-16.53-.02-.44.02-.88.14-1.3l.5-1.72c.13-.46.18-.93.14-1.4l-2.02-22.67c-.09-1.03-.25-2.04-.47-3.05l-.49-2.2.2-.5Z"/><path class="cls-6" d="M61.61,24.15l-1.75,1.04c-.68.4-1.21,1-1.53,1.71l-.72,1.63c-.65,1.46-2.05,2.44-3.64,2.56l-4.94.35"/><path class="cls-13" d="M84.36,76.21h0c.06.28.06.43.06.43-.02.42-.23.83-.52,1.22-1.18,1.97-2.05,1.82-4.14,3.19l-.14.58s-1.03,3.71,0,4.3l.63-2.17s1.44-.71,2.99.25c0,0,1.21.59.68,2.25h2.28c1.74-.41,1.66-1.92,1.66-1.92l.33-4.84c-.22-3.73-3.83-3.29-3.83-3.29"/><path class="cls-2" d="M84.36,76.21h0c.06.28.06.43.06.43-.02.42-.23.83-.52,1.22-1.18,1.97-2.05,1.82-4.14,3.19l-.14.58s-1.03,3.71,0,4.3l.63-2.17s1.44-.71,2.99.25c0,0,1.21.59.68,2.25h2.28c1.74-.41,1.66-1.92,1.66-1.92l.33-4.84c-.22-3.73-3.83-3.29-3.83-3.29Z"/><path class="cls-14" d="M45.42,152.37c.07.23-.02.46-.21.52-.18.06-.39-.08-.46-.31-.07-.23.02-.46.21-.52.18-.06.39.08.46.31"/><path class="cls-14" d="M54.19,146.06c.18.14-1.06,1.97-3.23,3.6-2.15,1.63-4.26,2.33-4.34,2.12-.1-.23,1.76-1.24,3.82-2.81,2.07-1.55,3.56-3.07,3.75-2.91"/><path class="cls-14" d="M58.26,153.43c.12.2-3.14,2.44-7.47,4.71-.54.28-1.07.55-1.58.81-.52.25-.98.52-1.58.7-.58.18-1.35.09-1.77-.44-.22-.26-.28-.62-.24-.89.04-.28.14-.51.26-.71.5-.78,1.23-1.05,1.69-1.11.48-.06.73.04.73.09,0,.07-.25.08-.64.23-.38.15-.93.47-1.25,1.09-.15.3-.19.67,0,.84.2.2.59.29,1,.14.41-.14.91-.44,1.42-.69.51-.27,1.03-.54,1.57-.82,4.29-2.25,7.74-4.16,7.87-3.95"/><path class="cls-14" d="M46.44,165.91c-.18-.14,1.71-2.8,4.68-5.48,1.48-1.34,2.92-2.43,4.03-3.15.56-.37,1.12-.57,1.53-.57.41,0,.6.15.58.2-.02.06-.22.04-.54.14-.32.09-.74.33-1.22.73-.98.83-2.35,1.97-3.8,3.29-2.92,2.63-5.07,5-5.26,4.84"/><path class="cls-14" d="M50.41,197.55c.05.1-.66.64-1.97,1.21-.66.29-1.47.57-2.39.8-.46.11-.95.21-1.47.29-.25.04-.55.09-.9.03-.29,0-.97-.39-.91-.92.01-.13.06-.24.13-.35l.12-.15.06-.08.26-.31c.17-.21.34-.4.51-.6.35-.38.69-.74,1.03-1.07.69-.65,1.35-1.19,1.93-1.61,1.16-.83,1.98-1.2,2.04-1.11.07.11-.62.65-1.65,1.58-.52.46-1.12,1.03-1.75,1.7-.32.33-.64.69-.96,1.06-.16.19-.32.39-.49.58l-.24.3-.06.08s0,0,0,0c.03,0-.08-.02.13.04.17.03.39.01.64-.02.49-.06.96-.14,1.41-.23.89-.18,1.69-.39,2.35-.6,1.32-.41,2.13-.76,2.19-.64"/><path class="cls-14" d="M39.36,193.82c.1-.03.23.13.52.22.28.1.69.06,1.36-.08,1.28-.24,2.98-.79,4.84-1.61.93-.41,1.82-.8,2.63-1.16.38-.17.64-.33.85-.55.21-.22.38-.49.5-.76.25-.54.36-1.07.48-1.43.11-.37.21-.58.31-.57.1,0,.19.22.25.61.06.39.11.97-.07,1.73-.09.37-.25.79-.54,1.18-.29.41-.75.75-1.17.98-.82.44-1.69.87-2.66,1.3-1.93.86-3.89,1.32-5.32,1.31-.67.03-1.43-.09-1.77-.47-.35-.36-.3-.67-.21-.68"/><path class="cls-14" d="M64.64,216.17s.09.1.1.34c.01.24-.06.61-.32.99-.49.8-1.69,1.38-2.94,2.15-.62.39-1.27.87-1.66,1.57-.21.32-.28.82-.72,1.29-.44.46-1.09.58-1.63.57-.56,0-1.07-.1-1.59-.18-.52-.08-1.06-.18-1.61-.3-1.09-.25-2.24-.6-3.27-1.29-1.05-.68-1.79-1.67-2.38-2.6-.6-.94-1.08-1.87-1.65-2.66-.56-.79-1.19-1.45-1.9-1.87-.7-.42-1.5-.57-2.24-.74-1.52-.3-2.68-.91-3.37-1.41-.7-.51-1.01-.89-.97-.92.04-.05.42.24,1.15.64.73.4,1.83.88,3.31,1.1.74.13,1.62.25,2.48.72.85.46,1.58,1.19,2.2,2.02,1.25,1.64,2.04,3.81,3.87,5.01.9.6,1.95.94,2.98,1.19.52.12,1.04.22,1.55.31.52.08,1.02.19,1.47.2.45.01.85-.08,1.08-.31.25-.22.37-.67.64-1.11.52-.86,1.3-1.36,1.97-1.73,1.36-.74,2.49-1.18,2.99-1.83.54-.61.41-1.13.49-1.13"/><path class="cls-14" d="M47.34,210.57s-.07-.14.03-.32c.1-.19.29-.36.51-.58.46-.43,1.14-.97,1.95-1.48.8-.5,1.62-.91,2.28-1.01.66-.11,1.07.04,1.06.13,0,.11-.39.15-.92.36-.54.21-1.24.63-2.04,1.13-.79.49-1.5.94-2.02,1.27-.25.15-.46.27-.61.36-.13.08-.19.15-.24.14"/><path class="cls-14" d="M48.94,211.41s-.1-.1-.05-.28c.05-.18.21-.38.4-.55.38-.36.95-.81,1.66-1.19,1.42-.77,2.73-.95,2.77-.76.06.2-1.1.67-2.43,1.4-.67.36-1.26.72-1.7.97-.46.22-.56.4-.66.42"/><path class="cls-14" d="M52.45,211.74s-.13,0-.16-.14c-.03-.14.04-.32.16-.46.24-.26.55-.49.96-.72.81-.44,1.58-.53,1.64-.34.06.19-.55.57-1.3.97-.37.2-.75.39-.97.47-.21.09-.25.13-.33.21"/><path class="cls-14" d="M55.61,212.79c-.07-.07-.18-.17-.31-.13-.03,0-.27.06-.43.1-.18.04-.32.04-.43.02-.11-.02-.2-.05-.29-.11-.07-.05-.22-.18-.27-.23l-.06-.06c.25-.25.48-.48.79-.68.14-.1.3-.18.43-.23.12-.05.18-.06.26-.08.31-.07.51-.02.53.07.03.09-.12.22-.33.38-.05.04-.13.09-.16.13-.02.03-.02.04-.02.05,0,.02.03.02.04.02h0s-.14.03.04.11c.27.1.36.32.35.47-.02.16-.12.19-.16.17"/><path class="cls-5" d="M28.9,97.7c0,.18,0,.37.01.55,0,0,3.54,4.43,20.38,5.87,0,0,.61,1.49,10.86,1.38l.2-.5"/><path class="cls-14" d="M35.45,46.55c-.24.12-1.33-1.97-1.37-4.8-.06-2.84.95-4.96,1.19-4.85.28.09-.25,2.21-.18,4.83.03,2.63.64,4.72.36,4.82"/><path class="cls-14" d="M51.07,37.6c-.15.22-2.15-1.03-4.91-1.85-.92-.29-1.8-.6-2.52-.92-.36-.16-.69-.32-.98-.47-.28-.14-.62-.33-.74-.66-.11-.35.09-.61.23-.68.15-.07.25,0,.26.03.01.04-.05.05-.1.14-.05.08-.06.23.02.32.13.19.88.36,1.58.62.74.24,1.6.51,2.52.8,1.41.43,2.66,1.05,3.46,1.6.81.55,1.24.98,1.18,1.07"/><path class="cls-14" d="M53.44,44.04c-.17-.07-.1-.8.48-1.79.58-.98,1.73-2.21,3.41-2.89,1.67-.71,3.46-.58,4.54-.04,1.11.54,1.42,1.31,1.28,1.4-.16.15-.69-.26-1.62-.44-.92-.2-2.29-.16-3.64.41-1.38.56-2.44,1.45-3.14,2.17-.71.72-1.1,1.26-1.29,1.18"/><path class="cls-14" d="M50.5,50.22c-.12,0-.26-.48-.38-1.28-.11-.8-.18-1.94.03-3.2.22-1.26.75-2.34,1.29-2.99.54-.65,1.03-.89,1.1-.8.09.1-.23.48-.59,1.15-.37.66-.75,1.64-.95,2.79-.2,1.15-.22,2.23-.27,3.02-.04.79-.11,1.3-.23,1.3"/><path class="cls-14" d="M52.8,54.21c.2.07-.19,1.26.49,3,.32.87.91,1.83,1.59,2.96.67,1.12,1.38,2.34,2.27,3.47,1.93,2.15,3.93,4.09,5.24,5.57,1.33,1.47,2.09,2.46,1.95,2.6-.14.14-1.14-.58-2.66-1.87-1.5-1.31-3.56-3.06-5.66-5.41-.98-1.25-1.68-2.55-2.3-3.71-.61-1.15-1.16-2.27-1.4-3.31-.25-1.04-.18-1.94,0-2.51.18-.58.41-.83.49-.79"/><path class="cls-14" d="M33.99,84.55c-.1.09-.54-.2-1.16-.77-.62-.57-1.43-1.43-2.11-2.57-.69-1.14-1.02-2.34-1.08-3.2-.07-.87.08-1.4.21-1.4.29,0,.45,2.03,1.74,4.09.62,1.04,1.31,1.93,1.78,2.62.47.68.73,1.14.63,1.24"/><path class="cls-14" d="M31.56,94.41c-.14-.06,0-.53-.04-1.24-.02-.35-.08-.77-.23-1.19-.15-.42-.42-.85-.74-1.35-.64-1-1.16-2.01-1.36-2.8-.26-.81-.04-1.41.1-1.36.14.03.18.45.56,1.09.35.66.91,1.53,1.55,2.53.32.5.63,1.05.77,1.62.14.57.13,1.1.05,1.52-.17.85-.57,1.24-.68,1.18"/><path class="cls-14" d="M33.01,87.5c-.06-.03-.09-.13-.12-.28-.01-.16-.09-.37.01-.78.05-.2.25-.45.5-.56.23-.12.5-.15.66-.16.36-.05.85-.03,1.07-.14.42-.1.43-.93.28-1.37-.14-.48-.36-.77-.27-.88.07-.11.51,0,.91.57.19.28.35.68.36,1.16,0,.24-.03.52-.17.8-.14.29-.43.53-.71.65-.61.24-1,.13-1.4.15-.42,0-.47,0-.58.09-.11.14-.18.41-.28.57-.1.17-.21.23-.27.2"/><path class="cls-14" d="M48.43,97.52c0-.07.76-.1,2.11-.25.68-.08,1.49-.18,2.44-.35.47-.09.97-.19,1.5-.31.67-.17.74-.16.76-.29-.07-.03-.14-.05-.2-.06l-.33-.07-.41-.06c-.56-.08-1.15-.15-1.75-.2-1.21-.11-2.49-.18-3.84-.21-2.71-.07-5.62.07-8.77.07-.43-.02-.85-.05-1.3-.14-.13-.03-.25-.06-.42-.15-.18-.1-.32-.26-.39-.44-.16-.37.08-.84.35-1.02.27-.2.54-.24.75-.27l.59-.1c.39-.06.78-.12,1.17-.18,1.55-.23,3.04-.42,4.46-.61,2.84-.36,5.4-.68,7.53-1.04,4.27-.68,6.83-1.48,6.87-1.34.02.05-.6.32-1.76.69-1.16.37-2.86.83-5,1.25-2.13.43-4.69.82-7.53,1.23-1.41.21-2.9.43-4.44.65-.38.06-.77.12-1.16.19-.37.07-.87.12-.97.22-.06.05-.02.02-.03.03h0s.09.04.16.05c.35.07.76.11,1.15.12,3.04,0,6.04-.12,8.76,0,1.36.05,2.67.14,3.9.29.61.07,1.2.16,1.78.25l.43.08.22.05.27.07c.49.14.81.34,1.15.54-.18.31-.42.6-.87.76-.54.17-.71.17-1,.24-.54.1-1.05.19-1.54.25-.97.13-1.8.18-2.49.21-1.37.04-2.14-.05-2.13-.11"/><path class="cls-14" d="M56.35,101.88s0-.11.07-.18l.11.28c-.19.24-.8.62-1.68,1.06-.9.42-1.99.97-3.43,1.34-.81.26-1.67.21-2.32.19-.68-.03-1.28-.07-1.8-.13-1.02-.12-1.66-.29-1.66-.49,0-.2.63-.39,1.65-.53.51-.07,1.12-.13,1.79-.18.69-.06,1.35-.04,2.03-.27,1.2-.3,2.4-.75,3.33-.97.94-.24,1.65-.35,1.97-.3l.11.28c-.1-.02-.15-.05-.17-.1"/><path class="cls-14" d="M37.27,154.12c-.15.13-.49,0-.77-.38-.14-.18-.26-.41-.37-.61-.11-.2-.22-.39-.34-.59-.49-.81-1.13-1.41-.99-1.79.08-.18.39-.25.84-.11.44.14.99.52,1.37,1.13.19.3.32.63.38.92.06.28.07.51.07.69-.01.36-.03.61-.19.74"/><path class="cls-14" d="M62.01,185.51c-.17-.48-.5-.54-.51-.5-.04.06.15.21.18.57.03.36-.14.89-.74,1.19-.57.3-1.48.47-2.43.71-.96.23-2.01.47-3.13.68-1.71.34-3.31.58-4.64.76l-.13.72c1.39-.08,3.1-.26,4.94-.62,1.13-.22,2.2-.49,3.16-.76.95-.3,1.82-.49,2.55-.96.35-.23.62-.57.73-.91.11-.34.09-.64.01-.87"/><path class="cls-14" d="M48.86,115.17s.21-.19.31-.59l.12.17c-1.05.1-3.5.22-7.43.35,2.25-.55,4.89-1.2,7.79-1.91.88-.22,1.89-.44,2.78-.69.21-.07.42-.17.53-.26h0s0,0,0,0l-.3-.1c-.25-.08-.5-.14-.75-.22-2.11-.59-4.19-.96-6.09-1.32-1.89-.35-3.61-.7-5.03-1.08-1.42-.38-2.54-.78-3.3-1.11-.38-.14-.7-.36-.81-.59-.11-.25.02-.37.03-.36.04,0,0,.13.12.27.12.14.37.27.77.36.78.23,1.91.53,3.33.83,1.42.3,3.12.59,5.02.89,1.9.32,4.01.66,6.18,1.27.26.08.52.14.77.22l.45.14.37.12c.1.05.17.11.26.16.03.04.12.04.1.1l-.04.17c-.02.1-.05.21-.09.31-.08.21-.24.41-.43.58-.29.22-.55.33-.82.42-1.05.28-1.95.45-2.87.67-.23.05-.45.1-.67.15l-.14.03h-.02s-.04,0-.04,0c-.08.01-.15.02-.22.03-.3.05-.57.1-.82.14.12.05.74.1,1.36.16l.2.02-.07.15c-.23.49-.55.54-.55.51"/><path class="cls-14" d="M55.24,17.76c0,.07-.33.12-.89.14-.14,0-.3,0-.47,0h-.26c-.12,0-.25,0-.39,0-.74-.03-1.58-.07-2.48-.11.99-.46,2.11-.98,3.28-1.52.7-.32,1.36-.61,1.97-.86l.17.63c-1.89.16-3.07.96-3.15.81-.04-.06.2-.33.72-.65.52-.32,1.33-.68,2.36-.82l2.03-.28-1.86.91c-.59.29-1.25.6-1.95.91-.19.08-.38.17-.56.25l-.25.11h0s-.05,0-.12.03c-.02.01,0,.03.1.06.34.05.64.1.89.14.55.09.88.18.87.26"/><path class="cls-14" d="M59.51,21.92c-.07-.05.54-.82,1.99-1.11l1.12-.22-.93.72c-.76.59-1.73,1.31-2.81,2.07l-.34-.63c.17-.07.34-.13.51-.2,3.21-1.22,5.64-2.57,5.75-2.39.11.16-2.23,1.82-5.48,3.06-.17.07-.35.14-.52.2l-2.84,1.11,2.51-1.74c1.09-.76,2.09-1.42,2.9-1.94l.2.5c-1.28.12-1.99.68-2.06.57"/><path class="cls-14" d="M56.52,20.7c-.05-.06.24-.4.9-.64.32-.12.73-.22,1.16-.29.3-.05.63-.11.96-.16.47-.1,1.2-.34,1.86-.52-.24.26-.5.53-.75.8-.28.3-.59.62-.94.9l-.24.19-.14.11c-.1.07-.19.13-.29.2-.38.25-.76.44-1.11.59l-.23-.53c1.01-.3,1.68-.43,1.72-.32.04.11-.56.44-1.52.86l-.23-.53c.3-.18.64-.39.97-.64.08-.06.17-.13.26-.19l.13-.1.03-.03s0,0,0,0h.01c.41-.06-1.03.03-1.54.12-.61.1-.97.27-1.02.19"/><path class="cls-6" d="M61.09,29.73h0c-.86-1.02-1.04-2.45-.46-3.66l.76-1.59c.28-.58.9-.91,1.54-.81l.1.02c.33.05.59.32.61.66l.25,3.45"/><path class="cls-7" d="M101.81,178.54s3.99-.37,4.06-4.06M106.09,172.26l-.04-2.44M106.6,140.87l.3-35.75"/><path class="cls-4" d="M77.1,84.28h-10.07c-.62,0-1.2.25-1.63.69l-.77.79c-.35.37-.09.99.42.99h42.87c.5,0,.77-.58.45-.96l-.85-.98c-.29-.33-.71-.52-1.15-.52h-18.42"/><path class="cls-7" d="M91.51,28h12.19s2.6-.28,4.27,2.27"/><path class="cls-8" d="M165.91,102.4v37.58c-6.11,1.7-13.16,2.01-13.16,2.01h-8.75s-7.05-.32-13.16-2.01v-37.58M151.53,142v31.79s4.28.63,5.73,3.53l.59,1.29c.35.77.13,1.69-.56,2.18-1.15.82-3.51,1.45-8.28,1.56h-1.26c-4.77-.11-7.13-.74-8.28-1.56-.69-.49-.91-1.41-.56-2.18l.59-1.29c1.45-2.9,5.73-3.53,5.73-3.53v-31.79h6.29Z"/><path class="cls-6" d="M144.09,175.74s-2.51.98,1.42,1.42c0,0,3.16.49,7.04-.27"/><path class="cls-7" d="M165.91,93.55v-21.17c0-1.51-.63-2.94-1.74-3.96l-5.46-5.03c-.3-.28-.67-.48-1.06-.58l-8.61-2.33c-.44-.12-.9-.12-1.33,0l-8.61,2.33c-.4.11-.76.31-1.06.58l-5.46,5.03c-1.11,1.02-1.74,2.45-1.74,3.96v19.87M160.07,141.31v-40.35M154.23,141.31v-40.35M142.54,141.31v-40.35M148.38,141.31v-40.35M136.69,141.31v-40.35"/><path class="cls-13" d="M142.13,79.66s-8.6.08-9.82,1.22c0,0-1.47.81-2.07,4.34-.05.29-.02.6.06.88l.14.44c.1.31.07.64-.08.92l-1.32,2.58.67.84-1.58.77c-.87.43-1.3,1.43-.99,2.36l2.45,7.39c.27.8,1.05,1.33,1.89,1.27l13.77-.98c.91-.06,1.83,0,2.72.17l3.31.64c.91.18,1.85.21,2.78.11l.83-.09c.5-.06,1-.06,1.5-.02l8.84.75c.48.04.91-.3.98-.78l.44-3.22c.18-1.33.53-2.64,1.04-3.88l1.79-4.38c.32-.79-.09-1.7-.9-1.98l-2.41-.83.04-2.35.82-.96c.56-.65.61-1.59.13-2.3l-2.13-3.13-2.39.67s-10.41-.71-20.52-.42"/><path class="cls-8" d="M142.13,79.66s-8.6.08-9.82,1.22c0,0-1.47.81-2.07,4.34-.05.29-.02.6.06.88l.14.44c.1.31.07.64-.08.92l-1.32,2.58.67.84-1.58.77c-.87.43-1.3,1.43-.99,2.36l2.45,7.39c.27.8,1.05,1.33,1.89,1.27l13.77-.98c.91-.06,1.83,0,2.72.17l3.31.64c.91.18,1.85.21,2.78.11l.83-.09c.5-.06,1-.06,1.5-.02l8.84.75c.48.04.91-.3.98-.78l.44-3.22c.18-1.33.53-2.64,1.04-3.88l1.79-4.38c.32-.79-.09-1.7-.9-1.98l-2.41-.83.04-2.35.82-.96c.56-.65.61-1.59.13-2.3l-2.13-3.13-2.39.67s-10.41-.71-20.52-.42Z"/><path class="cls-6" d="M163.85,82.15c0,.44-6.67.79-14.89.79s-14.89-.35-14.89-.79,6.67-.79,14.89-.79,14.89.35,14.89.79ZM166.21,88.16s-6.06,1.03-17.98,1.03-17.98-1.03-17.98-1.03M166.21,85.81s-6.06,1.03-17.98,1.03-17.98-1.03-17.98-1.03"/><path class="cls-14" d="M161.82,99.79c-.16-.07.73-2.49,2.29-5.25.39-.69.78-1.34,1.15-1.91.36-.59.79-1.07.81-1.46.04-.42-.27-.59-.55-.62-.27-.03-.44-.03-.45-.08,0-.04.14-.13.45-.18.15-.02.37-.03.61.11.24.14.4.45.4.76.02.33-.12.65-.27.93-.15.26-.31.55-.48.84-.34.59-.71,1.24-1.1,1.92-1.54,2.73-2.69,5.01-2.86,4.93"/><path class="cls-14" d="M160.74,96.01c-.09-.16.34-.58.75-1.16.43-.57.7-1.1.88-1.06.17.03.16.76-.35,1.45-.51.69-1.2.92-1.28.77"/><path class="cls-14" d="M133.61,99.41c-.03-.09.78-.38,2-.96.61-.29,1.33-.66,2.09-1.13.38-.24.77-.49,1.17-.77.38-.26.76-.6.84-.94.1-.32-.25-.56-.62-1.06-.19-.24-.25-.72-.07-1,.16-.29.35-.44.51-.61.7-.66,1.47-1.07,2.14-1.3,1.36-.47,2.26-.29,2.25-.23,0,.11-.86.11-2.08.66-.6.27-1.28.69-1.89,1.3-.15.16-.31.32-.38.46-.06.14-.05.22.05.37.1.16.29.32.47.56.19.23.34.64.24.99-.2.7-.7,1.03-1.11,1.33-.42.28-.83.54-1.23.76-.81.45-1.56.79-2.22,1.04-1.31.49-2.17.61-2.19.53"/><path class="cls-14" d="M133.76,97.03c-.09-.16.59-.72,1.57-1.18.97-.46,1.85-.62,1.9-.45.06.17-.68.6-1.63,1.04-.95.44-1.75.74-1.84.58"/><path class="cls-14" d="M156.85,100.18c-.08.04-.29-.21-.7-.1-.19.04-.4.19-.65.41-.25.21-.56.53-1.08.64-.55.09-.92-.11-1.22-.16-.32-.08-.61-.12-.86-.16-.5-.07-.83-.1-.84-.19-.01-.09.3-.22.85-.27.27-.02.6-.02.96.03.37.04.74.17.99.12.54-.11,1.1-.88,1.81-.87.33,0,.58.15.69.29.11.15.1.26.06.27"/><path class="cls-14" d="M132.95,91.29c.02.08-.25.25-.74.3-.49.06-1.14-.06-1.79-.13-.63-.06-1.2.04-1.55.22-.35.17-.51.4-.6.36-.08-.02-.07-.38.34-.75.4-.36,1.12-.56,1.87-.49.73.08,1.31.26,1.74.32.42.07.7.07.72.17"/><path class="cls-8" d="M216.46,189.17l3.33.95c.62.18,1.27.15,1.87-.07,1.1-.41,1.86-1.41,1.96-2.58l.03-.38c.02-.23,0-.47-.08-.69l-.86-2.74M202.93,184.64l-2.98,1.82c-1.02.62-2.22.9-3.41.79l-2.07-.19c-.98-.09-1.96.13-2.81.62l-.92.54c-.29.17-.5.46-.57.79-.28,1.34.45,2.68,1.72,3.18l3.21,1.25c2.25.88,4.64,1.33,7.06,1.33h12.51c.7,0,1.34-.37,1.69-.97.5-.86.67-1.87.47-2.85l-.82-4.03M230.46,51.25l4.45,15.1c.24.8.41,1.62.52,2.44l.22,1.65.26.98c.45,1.75.65,3.55.58,5.35-.1,2.25-.35,5.38-1.04,7.89,0,0-.71,6.96-2.68,12.75M217.1,184.98l6.07-1.43.27-6.35c.02-.4-.13-.8-.41-1.09l-.46-.48c-.29-.31-.28-.8.03-1.09l.61-.57c.38-.36.58-.85.56-1.37l-1.05-25.8c-.03-.76-.29-1.49-.73-2.1l-1.08-1.48.8-.63-.14-1.86c-.02-.21-.08-.42-.19-.6l-.52-.86c-.13-.21-.16-.47-.1-.71l.55-2.21c.21-.84.21-1.71,0-2.55l-1.09-4.48c-.13-.54-.09-1.11.11-1.62l.36-.92c.13-.34.22-.69.27-1.05l1.22-9.98c.15-1.2.46-2.38.93-3.51l1.67-4.01M191.88,113.27l.8,1.44c.25.45.4.95.45,1.46l1.21,13.33c.04.33.08.66.12.98l1.69,10.34c.08.5.26.98.51,1.42l1.66,2.8c.39.66.6,1.41.6,2.18v1.51c0,.52.04,1.04.13,1.56l3.01,18.24s0,.08,0,.12l-.5,3.22c-.16.99.09,2,.68,2.81l2.01,2.74c.37.51.49,1.16.32,1.76l-.16.56c-.13.48-.44.9-.86,1.17l-.21.14c-.37.24-.62.63-.69,1.07l-.2,1.37c-.08.56.24,1.1.76,1.3l4.13,1.56c.96.36,1.98.55,3.01.55h5.46c.55,0,1.04-.34,1.23-.85.19-.51.04-1.08-.36-1.44l-.2-.18c-.12-.1-.16-.27-.11-.42l.55-1.64-.35-.87c-.02-.05-.03-.1-.03-.16l.18-4.49c0-.17-.1-.33-.26-.38l-.88-.32c-.2-.07-.3-.29-.24-.5l.67-1.98c.35-1.04.44-2.15.26-3.24l-2.93-17.89c0-.05,0-.11,0-.16l.52-1.97c.05-.19-.05-.39-.23-.47l-.94-.38.69-.82-1.92-6.98c-.02-.09-.02-.18.02-.26l.62-1.46c.26-.6.3-1.27.14-1.91l-.61-2.3s-.02-.09-.01-.13l1.25-16.12s0-.02,0-.03l1.52-9.29"/><path class="cls-6" d="M223.64,186.72s-.96-.38-2.69,1.07c0,0-1.83,1.35-4.49.47M190.19,190.24c1.04,1.51,3.51,1.36,5.09,1.69,1.66.35,4.26.73,8.36.45l7.93-.23c.91-.03,1.81-.23,2.64-.61.71-.32,1.7-.62,2.65-.42"/><path class="cls-13" d="M156.58,73.35l-7.27-.89c-1.23-.15-2.45.26-3.35,1.11l-1.57,1.5c-.44.42-.36,1.15.17,1.45l.46.27-.13.81c-.14.91.34,1.79,1.19,2.15l1.12.48,1.21-2.35c.39-.76,1.44-.84,1.95-.15.7.97,1.71,1.67,2.87,1.98l3.65.81"/><path class="cls-7" d="M156.58,73.35l-7.27-.89c-1.23-.15-2.45.26-3.35,1.11l-1.57,1.5c-.44.42-.36,1.15.17,1.45l.46.27-.13.81c-.14.91.34,1.79,1.19,2.15l1.12.48,1.21-2.35c.39-.76,1.44-.84,1.95-.15.7.97,1.71,1.67,2.87,1.98l3.65.81"/><path class="cls-6" d="M145.03,76.79l1.56-1.65c.46-.48,1.07-.79,1.72-.87l.95-.12"/><path class="cls-8" d="M187.59,22.74c.14.78.39,1.82.86,2.86l.69,1.48c.15.33.23.68.22,1.05l-.1,4.03.6.18h1.22l1.62,2.55c.14.22.2.48.18.73l-.07.72c-.06.61.31,1.18.88,1.38l.64.22c.3.11.62.17.94.2l2.97.21h7.6l4.8-5.29-1.67-1.87-.61-.12.07-1.14c0-.13.04-.26.1-.38l.94-1.88c.34-.68.53-1.42.57-2.17l.15-3.05c.1-2.1-.62-4.16-2.02-5.74l-1.94-2.19c-1.02-1.16-2.37-1.97-3.87-2.34l-.42-.1c-2.73-.68-5.62-.25-8.04,1.2-1.68,1-3.59,2.66-4.89,4.42,0,0-1.97,2.96-2.7,3.69l1.22.03.07,1.34Z"/><path class="cls-6" d="M208.35,30.57s-5.42.65-9.89,5.12c0,0-.94.81-2.11,2.15M187.52,21.39l2.49-1.28c.59-.3,1.3-.28,1.87.08l1.34.83,2.97,1.83.57,4.18.94-2.49M197.39,25.35s.48-2.29,1.99-1.52c0,0,.97.31.64,1.59,0,0-.13.88.07,1.71,0,0,.52,2.13-1.29,2.13M209.73,27.03l-1.92.73c-.38.14-.78.23-1.18.26l-1.19.09c-.44.03-.87-.15-1.16-.49l-2.07-2.53c-.47-.58-1.13-.97-1.87-1.11l-1.55-.3"/><path class="cls-13" d="M159.31,72.7l6.11-3.09,6.58-4.71c.36-.26.86-.2,1.15.13l.41.46s5.03-4.96,7.63-9.2c.4-.65.98-1.18,1.66-1.53l.7-.36,3.14-8.33c1.1-2.94,3.35-5.3,6.23-6.54,2.32-1,5.21-2.11,7.93-2.75,0,0,2.18-3.74,9.61-4.07l2.15,2.06c.52.5,1.14.87,1.83,1.08l8.79,2.82c2.39.76,4.24,2.65,4.97,5.05l2.27,7.52-3.29,20.12c-.52,3.2-.31,6.49.63,9.6l5.44,18.06,1.01,7.81-4.91.5-15.61,3.08-11.14.5-6.66.97c-1.59.23-3.11.79-4.47,1.65l-2.22,1.41-.25-10.45-.12-28.89c0-1.77-.11-3.53-.31-5.28l-.33-2.91-2.68,2.8c-1.86,1.95-3.97,3.64-6.27,5.03l-1.21.73c-.9.55-1.9.92-2.94,1.11l-.51.1c-1.33.25-2.63.66-3.86,1.24l-5.37,2.53c-.5.24-1.07.25-1.59.05l-.28-.11c-.31-.12-.66-.12-.97.02l-2.72,1.18c-.63.27-1.35-.02-1.61-.66l-.43-1.03c-.76-1.83-.78-3.89-.06-5.74l.15-.4c.27-.69.78-1.25,1.43-1.58"/><path class="cls-8" d="M159.31,72.7l6.11-3.09,6.58-4.71c.36-.26.86-.2,1.15.13l.41.46s5.03-4.96,7.63-9.2c.4-.65.98-1.18,1.66-1.53l.7-.36,3.14-8.33c1.1-2.94,3.35-5.3,6.23-6.54,2.32-1,5.21-2.11,7.93-2.75,0,0,2.18-3.74,9.61-4.07l2.15,2.06c.52.5,1.14.87,1.83,1.08l8.79,2.82c2.39.76,4.24,2.65,4.97,5.05l2.27,7.52-3.29,20.12c-.52,3.2-.31,6.49.63,9.6l5.44,18.06,1.01,7.81-4.91.5-15.61,3.08-11.14.5-6.66.97c-1.59.23-3.11.79-4.47,1.65l-2.22,1.41-.25-10.45-.12-28.89c0-1.77-.11-3.53-.31-5.28l-.33-2.91-2.68,2.8c-1.86,1.95-3.97,3.64-6.27,5.03l-1.21.73c-.9.55-1.9.92-2.94,1.11l-.51.1c-1.33.25-2.63.66-3.86,1.24l-5.37,2.53c-.5.24-1.07.25-1.59.05l-.28-.11c-.31-.12-.66-.12-.97.02l-2.72,1.18c-.63.27-1.35-.02-1.61-.66l-.43-1.03c-.76-1.83-.78-3.89-.06-5.74l.15-.4c.27-.69.78-1.25,1.43-1.58Z"/></g><polygon class="cls-13" points="188.38 89.34 193.63 86.23 193.63 90.55 188.38 92.99 188.38 89.34"/><polygon class="cls-6" points="188.38 89.34 193.63 86.23 193.63 90.55 188.38 92.99 188.38 89.34"/><g class="cls-11"><path class="cls-14" d="M202.18,142.55c-.06-.03.37-.82,1.53-1.64,1.13-.85,2.95-1.52,4.76-2.49l.16.61h-.43c-2.17.07-4.09.58-5.43,1.06-1.35.49-2.14.91-2.19.82-.04-.07.67-.64,2.01-1.25,1.33-.61,3.32-1.22,5.59-1.28h.45s.16.6.16.6c-1.91,1.01-3.7,1.59-4.84,2.3-1.16.67-1.69,1.33-1.77,1.26"/><path class="cls-14" d="M211.18,143c-.02.18-2.21.11-4.8.86-1.87.51-3.48,1.07-4.26,1.24l-.09-.27c.31-.05.49-.06.5-.01.02.05-.14.14-.42.28l-.09-.27c.71-.37,2.26-1.08,4.19-1.6,1.34-.36,2.6-.51,3.52-.48.91.02,1.46.17,1.45.25"/><path class="cls-14" d="M221.33,142.76c-.02.19-1.62.14-3.49.6-1.89.44-3.29,1.21-3.39,1.05-.1-.13,1.22-1.21,3.24-1.69,2.01-.49,3.68-.13,3.65.04"/><path class="cls-14" d="M207.99,180.71c.02-.09.72.01,1.84.25.56.12,1.22.27,1.95.44.37.09.75.19,1.13.27.19.04.38.07.58.09.1.01.19.02.29.02.09,0,.02,0,.04,0,0,0,0,0,0,0-.2-.19-.4-.38-.59-.56-.44-.43-.86-.83-1.23-1.19-.74-.73-1.29-1.31-1.56-1.64l.13-.17c.19.14.28.23.26.26-.02.03-.14,0-.36-.07l.13-.17c.36.24.98.74,1.77,1.41.39.34.82.71,1.29,1.12.26.24.54.48.82.74.27.23.44.43.62.64.1.06-.03.07-.09.09l-.22.06c-.14.04-.28.07-.43.1-.18.04-.46.05-.58.05-.12,0-.23,0-.35-.02-.23-.02-.44-.06-.65-.11-.42-.1-.79-.21-1.15-.31-.72-.21-1.37-.4-1.91-.58-1.08-.35-1.74-.61-1.72-.69"/><path class="cls-14" d="M212.09,184.51c.04.16-1.51.63-3.46.38-1.95-.24-3.34-1.08-3.25-1.23.08-.18,1.51.36,3.33.58,1.83.24,3.34.08,3.37.27"/><path class="cls-14" d="M220.15,181.25c.04.17-.74.52-1.77.59-1.03.07-1.86-.16-1.84-.34.02-.18.82-.24,1.79-.32.97-.07,1.77-.12,1.82.06"/><path class="cls-7" d="M158.34,73.49h-1.6c-.49,0-.96.22-1.25.62-.45.61-.91,1.72-.52,3.48,0,0,.35,3.77,3.24,3.87"/><path class="cls-14" d="M174.64,67.95c-.13.18-.44.22-.88.05-.22-.09-.48-.25-.72-.54-.25-.28-.41-.74-.46-1.04-.04-.22-.06-.38-.08-.5-.01-.1-.02-.17-.03-.26-.03-.14,0-.25-.12-.37-.12-.12-.11-.08-.12-.2-.03-.16-.19-.46.12-.6.14-.07.34-.11.57-.05.24.05.46.19.65.37.18.17.34.42.44.67.09.23.14.46.17.64.06.28.07.39.12.54.05.15.13.32.21.49.16.33.27.65.13.83"/><path class="cls-14" d="M188.71,52.82c.13.18-.15.67-.8,1.29-.65.6-1.71,1.43-3.28,1.65-.37.05-.81.04-1.1,0-.31-.03-.45-.04-.61,0-.33.05-.66.28-.94.53-.55.51-.9.97-1.12.87-.19-.07-.26-.68.2-1.57.24-.43.65-.98,1.42-1.27.38-.15.84-.17,1.15-.16.32,0,.53,0,.81-.03,1.06-.13,2.06-.65,2.83-.98.77-.35,1.31-.52,1.45-.34"/><path class="cls-14" d="M196.26,59.62c.1.09-.37.82-1.26,1.9-.44.54-.99,1.17-1.65,1.84-.65.66-1.47,1.34-2.27,1.98-.39.34-.83.63-1.16.96-.34.33-.91,1.46-1.19,1.81-.57.7-.79.6-1.26,1.13-.93,1.09-1.73,1.54-1.8,1.44-.09-.12.5-.72,1.25-1.86.38-.57-.71-.63-.16-1.39.28-.38,2.34-1.9,2.71-2.28.37-.39.56-.2.97-.55,1.71-1.31,3.04-2.57,4.05-3.55,1-.96,1.66-1.53,1.77-1.43"/><path class="cls-14" d="M196.53,57.87c-.1-.08.61-.85,1.14-2.36.26-.75.46-1.69.44-2.73,0-1.04-.31-2.16-.66-3.36-.33-1.21-.65-2.36-.94-3.41-.29-1.05-.48-2.01-.84-2.69-.34-.69-.86-1.08-1.25-1.25-.39-.18-.66-.17-.66-.23,0-.04.26-.15.75-.04.48.11,1.15.5,1.61,1.27.48.75.72,1.73,1.04,2.76.31,1.04.64,2.19.99,3.4.35,1.2.67,2.42.63,3.57-.02,1.14-.3,2.14-.64,2.92-.7,1.57-1.58,2.23-1.62,2.17"/><path class="cls-14" d="M213.76,38.35c.02.22-3.26.55-7.09,1.78-3.84,1.21-6.7,2.84-6.81,2.65-.11-.15,2.65-2.11,6.58-3.35,3.93-1.27,7.31-1.27,7.31-1.08"/><path class="cls-14" d="M210.12,110.35c0,.19-3.14.34-6.91-.53-1.87-.45-3.49-.91-4.71-1.01-1.21-.12-1.97.04-1.99-.08-.03-.08.72-.43,2.01-.44,1.29-.04,3.02.37,4.85.81,3.67.85,6.75,1.03,6.74,1.24"/><path class="cls-14" d="M196.62,16.55c-.02-.05.51-.38,1.51-.66.99-.29,2.47-.49,4.14-.24l-.16.52c-.54-.26-1.11-.54-1.69-.82-.77-.38-1.53-.75-2.27-1.12.05-.09.07-.19.09-.28.07-.07.17-.12.33-.13.83.25,1.59.47,2.26.67.23.07.45.14.65.21.16.05.3.1.43.15.51.18.79.31.78.35-.01.04-.32,0-.85-.1-.13-.03-.28-.06-.44-.09-.08-.02-.16-.04-.25-.06-.09-.02-.08-.01-.12-.02-.12-.02-.18-.02-.2-.01-.02,0,0,.02.04.04.06.02.12.05.19.08h.02c.44.23.87.44,1.28.64l-.16.52c-1.57-.27-2.99-.15-3.97.04-.99.18-1.56.39-1.59.32"/></g></svg>