<?xml version="1.0" encoding="UTF-8"?><svg id="Layer_1" xmlns="http://www.w3.org/2000/svg" xmlns:xlink="http://www.w3.org/1999/xlink" viewBox="0 0 134.78 71.95"><defs><style>.cls-1{fill:none;}.cls-2{fill:#009945;}.cls-3{clip-path:url(#clippath);}</style><clipPath id="clippath"><rect class="cls-1" x="15.96" y="10.84" width="103.58" height="50.14"/></clipPath></defs><g class="cls-3"><path class="cls-2" d="M110.61,20.84c-.2-.69-.83-1.17-1.55-1.17h-7.12c-.63,0-1.13.51-1.13,1.13v6.53c0,.81.4,1.57,1.08,2.02l3.82,2.55c1.67,1.12,3.63,1.71,5.64,1.71h2.02c.48,0,.81-.45.68-.91l-3.43-11.87ZM113.77,33.21l-.41.2h-2.02c-1.98,0-3.89-.58-5.53-1.68l-3.82-2.55c-.62-.42-.99-1.11-.99-1.85v-6.53c0-.51.42-.93.94-.93h7.12c.63,0,1.19.42,1.36,1.02l3.43,11.87-.08.45ZM118.57,29.69l-.18-.4c-.57-1.22-1.04-2.49-1.42-3.78l-1.91-6.49c-.61-2.06-2.53-3.51-4.67-3.51h-5.59v-3.24h-2.56v3.24h-6.76c-.44,0-.79.36-.79.8v22.83l-.13.12h-.44l-.2-.04h-1.82V11.25h-2.4v1.59h-15.13v-1.59h-2.4v1.59h-15.13v-1.59h-2.41v1.59h-2.66c-.01-1.1-.91-2-2.02-2h-4.72c-1.19,0-2.36.41-3.29,1.15l-1.06.84h-10.35c-.44,0-.79.36-.79.8v1.89l-8.02,1.89c-2.82.66-4.87,3.14-4.99,6.02l-.76,17.76c-.08,1.99.81,3.89,2.4,5.09l.69.52c1.77,1.34,3.72,2.42,5.8,3.2l1.63.61c.53.2,1.08.3,1.63.3.96,0,1.9-.3,2.71-.88l3.67-2.65c.16,1.98,1.68,3.57,3.62,3.82-.11.52-.16,1.06-.16,1.62,0,4.5,3.66,8.16,8.16,8.16s8.16-3.66,8.16-8.16c0-.53-.05-1.06-.15-1.56h5.35v2.87h25.28v-2.87h7.83c-.1.51-.15,1.03-.15,1.56,0,4.42,3.59,8.01,8,8.01s8.01-3.59,8.01-8.01l-.02-.43,2.91,1.09.28.05h6.18c.44,0,.8-.36.8-.8v-5.05l-.07-.31-.81-1.87c1.07-.42,1.83-1.48,1.83-2.7v-8.68c0-1.52-.34-3.05-.97-4.43M102.63,12.68h1.76v2.85h-1.76v-2.85ZM90.1,12.84v-1.19h1.61v28.89h-1.61V12.84ZM89.7,39.22h-15.13V14.43h15.13v24.79ZM72.56,12.84v-1.19h1.61v28.89h-1.61V12.84ZM72.16,39.22h-15.13V14.43h15.13v24.79ZM55.02,12.84v-1.19h1.61v28.89h-1.61V12.84ZM54.63,39.22h-15.44c-.04-.51.03-1.03.23-1.51l7.98-20.35c.31-.78,1.04-1.28,1.88-1.28h.67c.99,0,1.8-.71,1.98-1.64h2.7v24.79ZM27.04,49.13l-1.63-.61c-.99-.37-1.94-.82-2.86-1.33l7.19-10.77,1.59-2.38,12.24-18.35-5.59,21.31-.05.13c-.15.38-.23.77-.29,1.17l-.24.91h0s.14.24.14.24h.07s.09.61.09.61l.17.76.2.88c.13.6-.1,1.21-.6,1.57l-1.43,1.03-1.59,1.15-4.57,3.3c-.83.6-1.89.74-2.85.38M20.01,45.54l-.69-.53c-1.17-.89-1.83-2.29-1.77-3.75l.22-5.23,11.97-10.65,1.59-1.41,10.69-9.52.91-.81v-.28s-.07-.04-.07-.04l.08-.06.63-.4c.52-.26,1.08-.41,1.67-.41h4.72l.43.41v.02s0,1.19,0,1.19l-.24.38-.19.05h-.67c-1.5,0-2.81.9-3.36,2.29l-6.69,17.06,5.03-19.2-.08-.2-.03-.03-.18.03-.07.04-12.57,18.85-1.59,2.38-7.53,11.28c-.76-.44-1.5-.92-2.2-1.45M18.31,23.5c.09-2.18,1.64-4.05,3.77-4.55l7.66-1.8,1.59-.38,10-2.35.14-.03-.04.03-10.1,8.99-1.59,1.42-11.94,10.63.51-11.97ZM31.33,14.43h3.05l-3.05.72v-.72ZM52.69,52.82c0,3.62-2.95,6.57-6.57,6.57s-6.57-2.95-6.57-6.57c0-.54.07-1.06.19-1.56.14-.56.34-1.09.61-1.59,1.12-2.04,3.28-3.42,5.77-3.42s4.65,1.39,5.77,3.42c.27.49.48,1.03.61,1.59.12.5.19,1.02.19,1.56M84.36,51.26v2.47h-24.49v-5.36h24.49v2.89ZM106.86,52.82c0,3.54-2.88,6.42-6.42,6.42s-6.42-2.88-6.42-6.42c0-.54.08-1.06.2-1.56.14-.56.35-1.09.63-1.59,1.1-1.95,3.19-3.27,5.58-3.27s4.6,1.39,5.68,3.43c.31.6.53,1.25.65,1.94.06.34.09.69.09,1.05M116.99,51.94h-5.24l-3.64-1.36c-.97-3.33-4.04-5.77-7.68-5.77-3.3,0-6.13,2-7.36,4.86h-8.33v-1.7h-25.28v1.7h-5.83c-1.23-2.94-4.15-5.01-7.53-5.01s-6.29,2.07-7.53,5.01c-1.4-.04-2.54-1.2-2.54-2.62v-.78l2.36-1.71c1.01-.73,1.49-1.99,1.21-3.21l-.12-.54h50.19v.12h2.4v-.08h3.37l.6-.3h5.44l6.89,5.08.47.15h7.22l.89,2.06v4.09ZM117.95,42.8c0,.72-.58,1.31-1.36,1.31l-.35.09h-7.1l-6.89-5.08-.47-.15h-5.51v-21.86h14.11c1.44,0,2.73.97,3.14,2.37l1.91,6.48c.4,1.36.91,2.71,1.5,4l.18.4c.54,1.17.82,2.47.82,3.76v8.68ZM100.44,50.53c-.66,0-1.25.29-1.67.73-.38.41-.62.96-.62,1.56,0,1.27,1.03,2.3,2.29,2.3s2.3-1.03,2.3-2.3c0-.61-.24-1.15-.62-1.56-.42-.45-1.01-.73-1.67-.73M102.34,52.82c0,1.05-.85,1.9-1.9,1.9s-1.9-.85-1.9-1.9c0-.65.33-1.22.82-1.56.31-.21.67-.34,1.07-.34s.77.12,1.08.34c.5.35.82.91.82,1.56M46.11,50.46c-.7,0-1.32.31-1.75.8-.37.42-.6.96-.6,1.56,0,1.3,1.06,2.36,2.36,2.36s2.36-1.06,2.36-2.36c0-.6-.23-1.14-.61-1.56-.44-.49-1.06-.8-1.76-.8M48.07,52.82c0,1.08-.88,1.96-1.96,1.96s-1.96-.88-1.96-1.96c0-.64.31-1.2.78-1.56.33-.25.73-.4,1.17-.4s.85.15,1.17.4c.48.36.79.92.79,1.56"/></g></svg>